<svg xmlns="http://www.w3.org/2000/svg" viewBox="0 0 1092.08 1736.71"><defs><style>.cls-1{fill:#b8225b;}</style></defs><g id="Layer_2" data-name="Layer 2"><g id="Layer_8" data-name="Layer 8"><path id="_2" data-name="2" class="cls-1" d="M1092.08,1684.37c-97.82,73.94-229,70.15-321.42-15.27-198.15-183.21-383.42-378.38-535.92-602.32C146,936.51,70.7,799.4,28,646.4,16.61,605.79,8,564.63,3.72,522.62c-.3-3-.08-6.19-3.72-7.49V441.59c7.36,2.9,14.85,5.5,22.05,8.73Q143.37,504.8,264.61,559.44c1.17,1.34,2.33,2.69,3.49,4,.73,6,.9,12.2,2.27,18.09C288.8,661.07,318,736.77,353.59,810c46.33,95.26,102.77,184.45,164.16,270.75,84.74,119.11,179.68,229.68,279.74,335.86,57.08,60.56,116.69,118.81,176.63,176.58,26.24,25.29,52.2,51.43,84.12,70.37C1069.6,1670.26,1083.77,1672.67,1092.08,1684.37ZM493,.84c-54.06-2.58-107.75.37-160.19,14.6-139,37.73-243,117.21-299.26,253l219.68,98.86c1.37-11.45,2.3-23,4.16-34.33C276.1,218.32,330.6,125.49,424.7,56.15c28.19-20.77,60.66-33.46,90-51.9C507.44,3.08,500.25,1.19,493,.84Z"/></g></g></svg>