<svg xmlns="http://www.w3.org/2000/svg" viewBox="0 0 1431.07 787.44"><defs><style>.cls-1{fill:#e4e3e4;}</style></defs><g id="Layer_2" data-name="Layer 2"><g id="Layer_8" data-name="Layer 8"><path id="_3" data-name="3" class="cls-1" d="M1331.77,787.44q-193.45-88.1-386.93-176.15Q819.71,554.4,694.43,497.84c-5.39-2.43-10.47-6.75-17.18-4.71l.07.26c.63-2.77-1.42-3.32-3.32-4l-33.6-66.12c2.06-14.52,11.31-25.37,18.94-37C686.27,404,714.79,419,744,432.52c56.75,26.29,98.15,12.47,127.85-41.84l559.22,253.93c-20.53,40.89-49.18,76.4-75.63,113.31C1348.15,768.09,1343.74,780.92,1331.77,787.44Zm-1077.45-579c37.6,8.23,69.49,29.13,103,46.51,2.08-1.17,5.26-1.82,6.07-3.57,14.37-31,40-48.28,71.19-58.83q-90.18-40.9-180.37-81.79Q131.36,55.27,8.46,0C-3,24.78-.34,50.85,2.27,76.64c3.76,37.28,8.59,74.45,13,111.67l3.49,4L153.9,252C177.18,212.32,209,198.5,254.32,208.42Z"/></g></g></svg>