<svg xmlns="http://www.w3.org/2000/svg" viewBox="0 0 733.27 401.68"><defs><style>.cls-1{fill:#1ba088;}</style></defs><g id="Layer_2" data-name="Layer 2"><g id="Layer_8" data-name="Layer 8"><path id="_4" data-name="4" class="cls-1" d="M513,180.92c4.92-41.86,6.09-83.72-.37-125.54,28.94-17.24,58.52-33.3,89.88-45.73A122.24,122.24,0,0,1,645.42.73c52.68-1,85.53,29.38,87.14,82.45,1,34.22,2.3,68.6-7.06,102.17-29.71,54.31-71.11,68.13-127.86,41.84C568.44,213.66,539.92,198.7,513,180.92ZM108,3.09C62.64-6.83,30.82,7,7.54,46.64-3.6,80.7.56,115.82,1.74,150.42c2.34,68.73,55.78,104.52,120.63,82.07,10.34-3.57,20.26-8.49,30.07-13.41,20.73-10.42,41.26-21.25,61.87-31.91a156.53,156.53,0,0,1-7.23-52C208,106.6,206,78,210.94,49.6,177.46,32.22,145.56,11.32,108,3.09Zm338.61,387.3c7.44,14.78,15.7,15.5,22.4-.5,13.7-32.67,36-43.44,69.32-35.07a19.21,19.21,0,0,0,3.65.19c14.22.84,17.19-4.86,11.47-17.67C546,320.77,534.71,306,530.9,287.8l.07.26c-2.53-.14-3.23-1.81-3.33-4L494.05,218c-5.75-.92-8.44,3.69-12.13,6.61-15.83,12.5-32.93,22.14-53.69,23.33-14.43,6.83-29.65,1.95-44.47,3l-6,.27C400.67,297.62,423.3,344.16,446.57,390.39Zm-150.9-142.8c-23.22.59-39.84-13.65-57.49-25.59-18.34,36.61-36.85,73.13-54.91,109.87-7.89,16-4.74,22.44,12.2,18.52,35.81-8.28,59.15,2.54,71.4,37.17a8.08,8.08,0,0,0,1,1.51c7.33,10.82,14.43,10.59,20.14-1.11,22.22-45.51,46.94-89.79,66.86-136.43l-4.26-.57C332.35,249.37,313.58,255.41,295.67,247.59Z"/></g></g></svg>