<svg xmlns="http://www.w3.org/2000/svg" viewBox="0 0 1629.23 1684.3"><defs><style>.cls-1{fill:#e04b85;}</style></defs><g id="Layer_2" data-name="Layer 2"><g id="Layer_8" data-name="Layer 8"><path id="_5" data-name="5" class="cls-1" d="M4.63,371.05,0,367.22c1.36-11.45,2.29-23,4.15-34.34C22.89,218.25,77.38,125.42,171.49,56.08c28.19-20.77,60.65-33.46,90-51.9,149.28,14,317.63,106.59,367.75,300.16,8.59,33.18,26.61,51,52.93,52.87,32.66,2.37,55.23-14.76,64.23-50.19,10.47-41.28,26.35-80.19,49.55-115.86C861.42,90.43,956.25,33.1,1072.22,10.6c141.35-27.44,273.12-2.37,389.8,84.13,99.59,73.83,150.8,176,163.88,298.12,14.1,131.56-18.18,255.07-67.12,375.28-35.39,86.91-80.13,169-131.54,247.54L868,761.74c9.35-33.57,8.1-68,7.06-102.17-1.62-53.07-34.46-83.47-87.15-82.45A122.14,122.14,0,0,0,745,586c-31.37,12.43-60.94,28.49-89.88,45.74-23.48-50.06-62.33-73.66-117.88-68.53l-106.55.34q-90.18-40.9-180.37-81.79Q127.54,426.32,4.63,371.05ZM867.27,1661.38c77.63-73.8,154.57-148.3,227.58-226.74,82.17-88.28,161.58-178.88,233.09-276.15Q1134.49,1070.41,941,982.35,815.88,925.46,690.6,868.9c-5.39-2.44-10.47-6.76-17.18-4.71,3.82,18.17,15.12,33,22.52,49.53,5.72,12.81,2.75,18.52-11.47,17.68a20,20,0,0,1-3.65-.19c-33.27-8.37-55.62,2.39-69.32,35.07-6.71,16-15,15.28-22.4.5-23.27-46.23-45.9-92.77-68.78-139.19l-1.29-.43-18.43-.37a6.6,6.6,0,0,1-3.18,1.13c-19.91,46.63-44.64,90.92-66.85,136.43-5.71,11.7-12.81,11.92-20.14,1.1a7.48,7.48,0,0,1-1-1.51c-12.25-34.62-35.6-45.44-71.4-37.16-16.95,3.91-20.09-2.48-12.2-18.52,18.05-36.75,36.57-73.26,54.9-109.87l-23.87-34.83c-20.61,10.66-41.13,21.49-61.87,31.9-9.8,4.93-19.73,9.84-30.06,13.42-64.85,22.44-118.3-13.35-120.64-82.07-1.17-34.6-5.33-69.72,5.8-103.78L14.89,563.4c.73,6,.9,12.2,2.26,18.09C35.59,661,64.78,736.7,100.37,809.88c46.34,95.26,102.77,184.45,164.17,270.75,84.74,119.11,179.68,229.68,279.73,335.85,57.08,60.57,116.7,118.82,176.63,176.59,26.24,25.29,52.21,51.43,84.13,70.37,11.36,6.75,25.52,9.16,33.83,20.86C848.36,1676.69,858.48,1669.74,867.27,1661.38ZM673.49,864.45c-2.53-.14-3.22-1.81-3.32-4C672.07,861.13,674.12,861.67,673.49,864.45Z"/></g></g></svg>