<svg xmlns="http://www.w3.org/2000/svg" viewBox="0 0 310.08 265.52"><defs><style>.cls-1{fill:#9ed4d4;}</style></defs><g id="Layer_2" data-name="Layer 2"><g id="Layer_8" data-name="Layer 8"><path id="_6" data-name="6" class="cls-1" d="M306,194.75c-7.63,11.67-16.88,22.51-18.94,37-5.75-.92-8.44,3.7-12.13,6.61-15.83,12.51-32.93,22.14-53.69,23.33-13.57-1.83-27.64,2.43-40.87-3.44-48.56-16.12-73.51-50.21-73.65-100.78-.06-19.51.4-39-.09-58.52-.37-14.45,3.4-27.54,9.57-40.38C130.93,27.91,157.25,11.79,187.74.69,243.3-4.44,282.15,19.16,305.62,69.2,312.08,111,310.91,152.88,306,194.75ZM81.19,1C50,11.58,24.37,28.83,10,59.85c-.81,1.75-4,2.41-6.06,3.57C-1,91.78,1,120.43.08,149a156.63,156.63,0,0,0,7.23,52q11.94,17.4,23.87,34.83c17.65,11.93,34.27,26.18,57.5,25.58,18.27,1.88,37-4,55,3.37l4.26.57a6.36,6.36,0,0,0,3.17-1.13c6.24-4.34,12.39-4.63,18.44.37l1.28.43,6-.26,3.6-6.49c-48.56-16.11-73.51-50.2-73.65-100.77-.06-19.51.4-39-.09-58.52-.37-14.45,3.4-27.54,9.57-40.38C130.93,27.91,157.25,11.79,187.74.69Zm88.32,263.57c-6-5-12.2-4.71-18.44-.37Zm10.85-6.32-3.6,6.49c14.82-1.08,30,3.79,44.47-3C207.66,259.89,193.59,264.15,180.36,258.27Zm-91.69,3.14c17.91,7.83,36.68,1.78,55,3.37C125.7,257.38,107,263.29,88.67,261.41Z"/></g></g></svg>