<svg xmlns="http://www.w3.org/2000/svg" viewBox="0 0 1714.94 1933.34"><defs><style>.cls-1{fill:#e94464;}</style></defs><g id="Layer_2" data-name="Layer 2"><g id="Layer_2-2" data-name="Layer 2"><path id="_1" data-name="1" class="cls-1" d="M1625.46,984.52c34.72,62.6,53.88,131.08,53.88,202.92,0,216.52-174.08,403-424.52,487.32-63.36,117.8-215.76,258.58-388.92,258.58-219.32,0-395.4-190.78-412.6-359.46-97.2-68.8-168.48-157.4-202-257C101,1253,2.9,1150.56.06,1032.84c-2.48-103.24,68.8-198.36,185.6-268C107.54,700.36,57.42,600.52,57.42,488.44c0-194.44,26.86-364.22,213-364.22C361,124.22,541.49,23.09,602,83.81,717.37-24.27,829.15,3.09,1003.35,3.09c353.32,0,711.59,330.75,711.59,668.91C1714.94,786.16,1682.3,893,1625.46,984.52Z"/></g></g></svg>