<svg xmlns="http://www.w3.org/2000/svg" viewBox="0 0 812.66 769.86"><defs><style>.cls-1{fill:#eb73aa;}</style></defs><g id="Layer_2" data-name="Layer 2"><g id="Layer_2-2" data-name="Layer 2"><path id="_2" data-name="2" class="cls-1" d="M549,584.57c-4.06-8.16-11.43-13.69-16.64-20.93-2.6-3.63-4.89-1.86-7.82-.28-21.86,11.7-39.11,9.41-57.07-8.39-5-4.91-7.95-4.84-13.62-1.24C381.06,600,297.75,587.44,242.11,522c-3.48-4.08-5.6-5.26-10.62-1.76-21,14.65-21.25,14.51-3.43,33.2,5.22,5.48,10.24,11.7,16.61,15.44,12.56,7.38,16.55,18.52,19.52,31.86C275.62,652.15,288,703.35,300,754.64a46.29,46.29,0,0,1,.65,6.14c-7.41,3.71-14.61,7.93-23,9.08-3-12.5-9.93-13.27-21.39-9.57a90.39,90.39,0,0,1-42.76,2.91c-20.8-11.87-39.44-26.55-53.89-45.68-32.08-42.47-41.17-89.83-28-141.36,1.78-7,.64-10.65-6.81-13a158,158,0,0,1-46.43-24.24c-5.83-4.36-13.62-7.08-16-15.24,13.76,4.28,27.45,8.75,41.28,12.77,23.42,6.81,23.23,6.63,29.13-17.75,1.22-5,.11-6.69-4.38-7.87-10-2.61-19.83-5.73-29.84-8.24-51.76-13-88.34-56.73-90.76-107.43-.27-5.59-2.27-8.24-7.83-8.07,1.35-12.28,1.65-24.79,4.24-36.81,9.07-42,29.32-77.46,62.51-105.5C79,234.43,93.3,227.66,105.87,218.11c5.75-.73,11.49-2,17.24-2,5,0,5.46-2.71,5.59-6.34,8.3-2,16.52-5.32,24.91-5.78,14.46-.8,23.12-3.85,24.19-21.62,1.3-21.48,16-37.18,31.44-51.28,12.88.47,23.63,6.71,34,13.31,6.25,4,8.35,2.64,10.51-4,2.95-9,5.87-18.19,11.21-26.25,11.2.09,21.83,3.21,31.7,7.92,6.94,3.31,9.18,1.44,11.86-4.93,14.76-35.25,37.69-64.27,67.63-88,13.26-10.49,28.94-16.9,42.66-26.54,20.29-4.12,40.65-3.1,60.69.88C557.13,19,608.92,64.73,635.54,139c2.66,7.44,5.64,9.27,13.11,8.14,47.19-7.13,80.3,30,68.22,76.52-1.68,6.46-.82,9.6,5.22,12.85,21.83,11.77,40.71,27.37,55.55,47.28,76.64,102.8,21.1,247-104.64,272-17.67,3.51-17.69,3.53-9.7,19.78,16.23,33,14.63,65.28-7.49,94.56C624.89,711,573.9,717.13,529.88,686.93c2-9.39,4-18.81,6.1-28.18q7.66-33.64,15.52-67.24C552.18,588.56,554.18,585.32,549,584.57ZM169.56,295.44c-.09,39.55,8.31,67.91,25.3,93.63,13.86,21,13.89,20.73,32.1,4.05,4.28-3.92,5.58-6.16,1.28-11.45-23.78-29.27-32.38-62.86-25.28-99.84,16-83.48,110.27-126.72,185.19-79.64,15.14,9.51,14.82,10,26.56-3.59,8.65-10,8.85-10.33-2.11-17.77-50.8-34.5-104.71-40.06-159.46-12.08C198.78,196.54,172.08,243.35,169.56,295.44ZM550.47,58.69a43.16,43.16,0,0,0-3.09,3.37c-3.55,4.66-6.84,9.55-10.58,14s-2.88,7.9,1.38,11.35a139.06,139.06,0,0,1,16.66,15.47c18.16,20.32,28.07,44.75,36.31,70.19,7.61,23.53,7.77,23.26,30.77,14.61,5.13-1.94,6.2-3.8,4.25-8.91-4.53-11.92-8.31-24.12-12.66-36.11-11.57-31.8-29.61-59.08-56.5-80.09C555.16,61.17,553.84,58.89,550.47,58.69Zm115.3,448.77c1.34,7.1,2.59,14.21,4.05,21.28.82,4,3.4,4.33,7,3.44a149.49,149.49,0,0,0,55.52-26.55c16.6-12.63,16.34-13,1.52-27.57a41.91,41.91,0,0,1-3.65-3.65c-3.06-3.86-5.76-3.68-9.31-.28-14.24,13.66-31.28,22.38-50.24,27.42C667.38,502.43,664.61,503.2,665.77,507.46ZM348,524.53c-.05-2.3,1.24-4.82-1.33-5.82-7-2.74-14.16-5.21-21.28-7.72-1.73-.61-2.45.91-3.05,2-3.72,7-7.36,14-11,21-.84,1.61-1.41,3.6.41,4.58,9.14,4.88,19.06,10.11,29,9.53,5.63-.32,3.84-11,5.67-16.95C347.09,528.91,347.52,526.53,348,524.53ZM502.61,32.17c-.5.2-2,.36-2.17.94-2.94,8.73-5.87,17.47-8.38,26.33-.47,1.63,2,2.47,3.6,3.15,5.35,2.32,10.81,4.43,16,7.08,4.84,2.46,7.5.11,8.6-3.91C522.38,58,534.49,52,528,43.75,522.63,36.9,512,35.07,502.61,32.17Zm258.8,441c1.42-.78,2.61-1,3.11-1.77,5.47-7.95,10.43-16.19,13.91-25.23a2.89,2.89,0,0,0-.83-2.65c-7.93-4.05-15.88-9.06-24.68-9.72-5.86-.44-6.14,7.39-8.54,11.62-2.13,3.76-8.34,7.79-3.42,12.47C747.1,463.78,754.59,468.22,761.41,473.2Zm13-85.55c-4.35,1.14-12.16-3-14.37,2.39-2.86,6.94-3.49,15.58-2.4,23.1.66,4.58,8.19,3.76,12.66,4.9,17.88,4.55,18.38,4,19.41-14.75C790.56,387.65,790.56,387.65,774.4,387.65Zm-485.25,94.7c-2.19,1.54-4.43,3.1-6.65,4.69-19.32,13.85-18.75,13.29-2.12,30.06,8.19,8.25,11.74,5.72,17.32-2,9.93-13.77,10.35-13.55-1-26C294.53,486.63,293.27,483,289.15,482.35ZM409,340.26c-15.15,0-15.15,0-15.16,12.13,0,19,0,19,12.4,19,18.72,0,18.72,0,18.72-12.61C424.92,340.26,424.92,340.26,409,340.26Zm67.78,16.13c0-16.12,0-16.12-12.12-16.13-19,0-19,0-19,12.43,0,18.69,0,18.69,12.7,18.69C476.73,371.39,476.73,371.39,476.73,356.39Zm36.8-16.13c-16.09,0-16.09,0-16.1,12.22,0,18.9,0,18.9,12.5,18.9,18.62,0,18.62,0,18.62-12.7C528.56,340.26,528.56,340.26,513.53,340.26Zm51.87,0c-16.14,0-16.14,0-16.15,12.18,0,18.94,0,18.94,12.45,18.94,18.67,0,18.67,0,18.67-12.65C580.38,340.26,580.38,340.26,565.4,340.26Zm-198.88,197c3.8,3.55-7.25,15.07,6.41,14.12,9.3-.64,22.15,3.47,26.61-7.84,3.07-7.77-6.51-25-10.38-25.15C369.68,517.79,366.64,520.21,366.52,537.21ZM445.24,37.06c0,17.71.12,19.46,22.72,17.87,12.75-.9,9.89-17.19,9.15-24.31-1.15-11.12-14.33-6.21-22.45-7.56C440.67,20.75,446.7,31.84,445.24,37.06Z"/></g></g></svg>