<svg xmlns="http://www.w3.org/2000/svg" viewBox="0 0 111.44 369.92"><defs><style>.cls-1{fill:#ef7759;}</style></defs><g id="Layer_2" data-name="Layer 2"><g id="Layer_2-2" data-name="Layer 2"><path id="_3" data-name="3" class="cls-1" d="M111.44,272.84q-11.25,48.51-22.51,97l-2.45.07C57.8,247.23,29.11,124.54,0,0A288.34,288.34,0,0,0,50.17,12,55,55,0,0,0,51.6,23.25Q70.36,103,88.74,182.82c-.58,3.57-1.77,7.33,2.94,9.2-.21,7.14,2.87,13.62,4.1,20.47-3.85,1.92-9.77-5-11.72,1.31-2.61,8.44-5.41,18-3.72,26.16,1.11,5.35,11.64,3.12,17.71,5.19a46.48,46.48,0,0,0,6.06,1.25C106.6,255.2,106.41,264.75,111.44,272.84Z"/></g></g></svg>