<svg xmlns="http://www.w3.org/2000/svg" viewBox="0 0 126.45 283.72"><defs><style>.cls-1{fill:#f9b359;}</style></defs><g id="Layer_2" data-name="Layer 2"><g id="Layer_2-2" data-name="Layer 2"><path id="_4" data-name="4" class="cls-1" d="M38.57,193.7Q20.06,113.9,1.43,34.13A55,55,0,0,1,0,22.92C37.87,25.1,74.1,19.17,107.88,1.13c6.73-3.6,10.82,2.36,15.88,4.5s1.64,6,.95,8.91Q93.08,149.15,61.28,283.72c-5-8.09-4.84-17.64-7.34-26.44,6.89.77,6.22-4.68,7.11-8.75C65.56,228,65.55,228,45.61,223.37c-1.23-6.85-4.31-13.33-4.09-20.47a79.3,79.3,0,0,1,8.18.56c18.2,3.17,18.2,3.21,21.78-14.66,2.59-12.89,2.53-13-10.3-14.88C43,171.23,43,171.24,39.54,189.73,39.3,191.07,38.9,192.38,38.57,193.7ZM71.24,45.18c-4.55-1.58-6.3.9-7.19,6.13-4.39,25.75-9.07,51.46-13.8,77.15-4,21.58-4,21.27,18,25.9,7.2,1.51,9.61-.05,10.76-7.43,4-25.47,8.47-50.87,13.18-76.22C96.58,47.11,96.22,46.4,71.24,45.18Z"/></g></g></svg>