<svg xmlns="http://www.w3.org/2000/svg" viewBox="0 0 598.73 801.19"><defs><style>.cls-1{fill:#de365f;}</style></defs><g id="Layer_2" data-name="Layer 2"><g id="Layer_2-2" data-name="Layer 2"><path id="_5" data-name="5" class="cls-1" d="M576.16,684.3c-7.43-5-10-2.58-10.83,5.9-2.37,23.26-8.8,45.17-24.17,63.57a88.17,88.17,0,0,1-6.1,7c-11.46,11-11.49,11-2.89,23.82a122.44,122.44,0,0,1-29.81,16.63Q523.48,710.58,544.61,620a13.53,13.53,0,0,0,.57-2c.85-13,5.72-21,20.62-21.84,11.08-.64,20.25-8.15,29.47-14.21,5.19.75,3.2,4,2.51,6.93q-7.83,33.61-15.52,67.25C580.12,665.49,578.18,674.9,576.16,684.3ZM205.87,714.88c-32.07-42.47-41.17-89.83-28-141.35,1.79-7,.64-10.66-6.81-13a157.85,157.85,0,0,1-46.42-24.25c-5.83-4.35-13.63-7.07-16-15.24l-.43.42.25.55-2.36-2.71c-25.31-14-46.92-32-61.95-57.24a156,156,0,0,1-21.89-70c-.39-5.48.9-7.48,6.49-7.22,5.81.28,11.65-.23,17.48-.39,1.35-12.28,1.65-24.79,4.24-36.8,9.08-42,29.32-77.46,62.51-105.51,12.21-10.32,26.55-17.09,39.12-26.64-6-1.09-11.67,1-17.36,2.15C48.65,235.22-12.13,321.85,2.06,408.21,14.15,481.8,57.5,528.78,128.33,550.44c8.84,2.7,9.4,5.55,6.68,13.33-16.07,46-13.14,90.51,14.12,131.65,26.11,39.38,62.75,62.13,110.64,65.15C239,748.69,220.32,734,205.87,714.88ZM342.94,119.45c6.94,3.31,9.19,1.44,11.86-4.94,14.76-35.24,37.69-64.26,67.64-88C435.69,16.05,451.37,9.64,465.09,0c-15.35.7-29.93,5-44,10.6-49.44,19.55-87.16,52.12-109.85,100.92C322.44,111.62,333.07,114.73,342.94,119.45Zm-143,81.88c14.46-.8,23.12-3.84,24.19-21.62,1.3-21.48,16-37.18,31.44-51.27-46.5-6.73-83.2,29.13-80.54,78.68C183.28,205.1,191.51,201.8,199.89,201.33Z"/></g></g></svg>