<svg xmlns="http://www.w3.org/2000/svg" viewBox="0 0 920.74 1061.38"><defs><style>.cls-1{fill:#030303;}</style></defs><g id="Layer_2" data-name="Layer 2"><g id="Layer_2-2" data-name="Layer 2"><path id="_6" data-name="6" class="cls-1" d="M533.2,834.73q-16.66,69.69-33.33,139.39-10.42,43.62-20.8,87.26H441.76Q419,964.54,396.19,867.68c-6-25.36-12.27-50.66-18.41-76a50.1,50.1,0,0,0-.65-6.14c-12-51.29-24.39-102.49-35.82-153.9-3-13.34-7-24.48-19.52-31.86-6.37-3.74-11.39-9.95-16.61-15.44-17.82-18.69-17.61-18.55,3.43-33.2,5-3.5,7.14-2.32,10.62,1.76,55.64,65.44,139,78,211.73,31.73,5.67-3.6,8.66-3.67,13.61,1.24,18,17.81,35.22,20.09,57.07,8.39,2.94-1.58,5.23-3.35,7.83.28,5.21,7.24,12.58,12.77,16.64,20.93-9.22,6.07-18.4,13.57-29.47,14.22-14.9.87-19.77,8.87-20.62,21.84a12.34,12.34,0,0,1-.58,2ZM423,642.94a288.34,288.34,0,0,1-50.17-12c29.12,124.54,57.8,247.23,86.48,369.92l2.46-.07q11.25-48.5,22.51-97Q516,769.16,547.71,634.56c.69-2.94,4-6.79-1-8.91s-9.15-8.1-15.88-4.5C497.1,639.19,460.87,645.12,423,642.94ZM286.36,162c12.88.47,23.63,6.71,34,13.31,6.24,4,8.34,2.64,10.51-4,2.95-9,5.86-18.19,11.21-26.25,22.69-48.8,60.4-81.37,109.85-100.92,14.06-5.56,28.64-9.9,44-10.6,20.3-4.12,40.65-3.1,60.69.89,77.64,15.45,129.42,61.2,156,135.42,2.67,7.44,5.65,9.27,13.11,8.14,47.2-7.13,80.31,30,68.22,76.52-1.67,6.46-.81,9.6,5.23,12.86,21.83,11.76,40.71,27.36,55.55,47.27,76.64,102.8,21.1,247-104.64,272-17.67,3.51-17.7,3.53-9.71,19.78,16.23,33,14.64,65.28-7.48,94.56C702,741.88,651,748.05,607,717.84c-7.43-5-10-2.57-10.82,5.91-2.37,23.26-8.8,45.17-24.17,63.57a86.28,86.28,0,0,1-6.1,7c-11.47,11.05-11.5,11-2.89,23.83a25.13,25.13,0,0,1,3.35,3.91c4.21,7.54,7.87,7.46,14.41,1.38,16.23-15.1,29.15-32.31,36.34-53.21,2.74-8,5.67-9.43,13.7-7.25,88.67,24.16,168.35-52.83,147.53-142.47-1.47-6.33-.2-8.77,6-11.09,78.44-29.49,125.38-85.93,134.9-168.91,8.82-76.9-20.76-139.62-83-186.25-5.91-4.42-9.73-8.26-8.55-16.69,1-7.31-.27-15-2-22.54-8.31-36.07-40.51-65.76-78.79-68.59-6.47-.48-10.54-2.48-13.79-9.29C693.92,54.84,628.4,8.71,537.93.81c-91.54-8-180.81,43.9-222.23,126.49-3.19,6.36-5.74,8.19-13.18,6.17a100.54,100.54,0,0,0-124.66,74.26c-1.89,8.09-5.62,10.93-13.35,12.15C78.2,233.57,5.16,314.87.37,402.22-4.53,491.4,39.56,565.58,120.3,602.65c8.16,3.74,9.48,7.65,8,15.51C104.94,741.53,216.55,849.3,339.73,822.45c18.45-4,18.45-4,15-21.68-3-12.5-9.93-13.26-21.39-9.57a90.39,90.39,0,0,1-42.76,2.92c-47.89-3-84.53-25.78-110.63-65.16-27.27-41.13-30.19-85.63-14.12-131.64,2.72-7.79,2.16-10.63-6.68-13.34C88.33,562.33,45,515.35,32.89,441.76c-14.18-86.36,46.6-173,132.74-190.59C171.32,250,177,247.93,183,249c5.76-.73,11.5-2,17.25-2,5,0,5.46-2.71,5.58-6.34C203.15,191.11,239.86,155.26,286.36,162ZM246.68,326.35c2.52-52.09,29.22-98.9,83.58-126.69,54.74-28,108.66-22.41,159.46,12.08,11,7.44,10.76,7.74,2.11,17.77-11.74,13.61-11.42,13.1-26.56,3.59-74.92-47.08-169.14-3.84-185.19,79.64-7.11,37,1.5,70.57,25.27,99.84,4.3,5.29,3,7.53-1.28,11.45-18.21,16.68-18.23,16.91-32.09-4C255,394.27,246.59,365.9,246.68,326.35ZM139.35,555.53l-.25-.55.42-.42c13.75,4.28,27.45,8.75,41.28,12.77,23.42,6.81,23.22,6.63,29.13-17.75,1.22-5,.11-6.69-4.38-7.87-10-2.61-19.83-5.73-29.84-8.24C124,520.5,87.37,476.74,84.94,426c-.26-5.58-2.26-8.23-7.82-8.07-5.83.16-11.68.67-17.49.39-5.58-.26-6.87,1.74-6.49,7.21a156.07,156.07,0,0,0,21.89,70c15,25.24,36.64,43.21,61.95,57.24C138,553.48,140.17,553.22,139.35,555.53Zm284.44-5.91c-7-2.74-14.17-5.21-21.29-7.72-1.72-.6-2.44.92-3,2.05-3.72,7-7.36,14-11,21-.83,1.61-1.4,3.61.42,4.58,9.14,4.88,19.06,10.11,29,9.53,5.63-.32,3.83-11,5.67-16.95.7-2.29,1.14-4.67,1.62-6.67C425.06,553.15,426.36,550.62,423.79,549.62Zm-57.52-36.36c4.12.67,5.37,4.28,7.57,6.7,11.32,12.49,10.91,12.27,1,26-5.58,7.73-9.13,10.27-17.32,2-16.63-16.77-17.21-16.21,2.12-30.06C361.84,516.36,364.08,514.8,366.27,513.26Zm104.64-130c0,19,0,19,12.4,19,18.71,0,18.71,0,18.72-12.61,0-18.5,0-18.5-16-18.5C470.91,371.18,470.91,371.18,470.91,383.3Zm70.82-12.12c-19,0-19,0-19,12.42,0,18.69,0,18.69,12.7,18.69,18.42,0,18.42,0,18.42-15C553.85,371.18,553.85,371.18,541.73,371.18Zm32.82,12.22c0,18.89,0,18.89,12.5,18.89,18.62,0,18.62,0,18.62-12.7,0-18.41,0-18.41-15-18.41C574.56,371.18,574.56,371.18,574.55,383.4Zm51.82,0c0,18.94,0,18.94,12.45,18.94,18.67,0,18.67,0,18.67-12.65,0-18.46,0-18.46-15-18.46C626.38,371.18,626.38,371.18,626.37,383.35ZM450.05,582.24c9.3-.64,22.15,3.47,26.61-7.84,3.07-7.77-6.52-25-10.39-25.15-19.47-.55-22.51,1.87-22.63,18.87C447.44,571.68,436.39,583.19,450.05,582.24Z"/></g></g></svg>