<svg xmlns="http://www.w3.org/2000/svg" viewBox="0 0 414.45 823.71"><defs><style>.cls-1{fill:#fffcfd;}</style></defs><g id="Layer_2" data-name="Layer 2"><g id="Layer_2-2" data-name="Layer 2"><path id="_7" data-name="7" class="cls-1" d="M174.93,35.94c3.37.2,4.69,2.48,6.54,3.92,26.89,21,44.93,48.3,56.5,80.1,4.35,12,8.13,24.19,12.66,36.11,2,5.11.88,7-4.26,8.91-23,8.65-23.15,8.92-30.76-14.61-8.24-25.44-18.15-49.87-36.31-70.2A140.72,140.72,0,0,0,162.64,64.7c-4.27-3.44-5.11-6.85-1.38-11.34s7-9.39,10.58-14.06A44.75,44.75,0,0,1,174.93,35.94ZM294.28,506c.82,4,3.4,4.33,7.05,3.44a149.36,149.36,0,0,0,55.52-26.56c16.6-12.63,16.34-13,1.52-27.56a42.14,42.14,0,0,1-3.66-3.66c-3-3.86-5.75-3.67-9.3-.27-14.24,13.66-31.28,22.38-50.24,27.42-3.33.88-6.1,1.65-4.94,5.91C291.57,491.8,292.82,498.92,294.28,506ZM127.07,9.42c9.36,2.9,20,4.73,25.41,11.58,6.47,8.22-5.64,14.26-7.76,22-1.1,4-3.76,6.37-8.6,3.91-5.19-2.65-10.65-4.76-16-7.08-1.59-.69-4.07-1.52-3.6-3.15,2.51-8.86,5.44-17.6,8.38-26.34C125.1,9.77,126.57,9.62,127.07,9.42ZM389,448.67c5.47-7.94,10.43-16.19,13.91-25.22a2.87,2.87,0,0,0-.83-2.65c-7.93-4.05-15.88-9.06-24.68-9.72-5.86-.44-6.14,7.38-8.54,11.62-2.13,3.76-8.34,7.78-3.42,12.47,6.14,5.86,13.63,10.3,20.45,15.28C387.29,449.67,388.48,449.41,389,448.67Zm-4.49-81.38c-2.87,6.94-3.49,15.57-2.4,23.09.66,4.58,8.19,3.77,12.66,4.91,17.88,4.55,18.38,4,19.41-14.75.86-15.64.86-15.64-15.3-15.64C394.51,366,386.7,361.93,384.49,367.29ZM69.7,14.31C71.16,9.09,65.13-2,79.12.31c8.12,1.34,21.3-3.56,22.45,7.55.74,7.13,3.6,23.42-9.15,24.32C69.82,33.77,69.7,32,69.7,14.31ZM4.23,791c-2.61,8.43-5.4,18-3.72,26.16,1.11,5.34,11.64,3.12,17.71,5.19a48.94,48.94,0,0,0,6.06,1.25c6.89.76,6.22-4.69,7.12-8.75,4.51-20.51,4.49-20.52-15.44-25.16C12.1,791.65,6.18,784.75,4.23,791Zm7.63-21.78a76.6,76.6,0,0,1,8.18.56c18.21,3.17,18.2,3.2,21.78-14.66,2.59-12.9,2.53-13-10.3-14.88-18.23-2.69-18.22-2.69-21.63,15.81-.25,1.33-.65,2.65-1,4C8.34,763.63,7.15,767.39,11.86,769.26ZM34.39,617.67c-4.38,25.75-9.07,51.45-13.8,77.15-4,21.57-4,21.26,18,25.9,7.2,1.51,9.61-.05,10.75-7.43,4-25.48,8.47-50.87,13.18-76.22,4.39-23.6,4-24.31-21-25.53C37,610,35.28,612.44,34.39,617.67Z"/></g></g></svg>