<svg xmlns="http://www.w3.org/2000/svg" viewBox="0 0 1731.28 1303.86"><defs><style>.cls-1{fill:#402d23;}</style></defs><g id="Layer_2" data-name="Layer 2"><g id="Layer_4" data-name="Layer 4"><path id="_3" data-name="3" class="cls-1" d="M45.64,749c15.33-12.54,24-30.46,36.63-45.3,86.07-101.51,228.22-141.28,353.25-98.34,23.57,8.09,47,17.69,72.48,18,50.86.62,90.59-20.8,119.44-62.19,30.12-43.22,65.11-81.13,111.25-107.82,27.31-15.79,56-28.23,86.7-35.1,11.1-2.49,14.86-7.53,16.11-18.33,8.35-72.26,28.11-141.3,65-204.24,62.67-107,151.85-179.3,278-193.33,128.94-14.34,231.85,37.23,306.2,141.42,67.49,94.57,78.95,199.23,37.65,307.88-26.85,70.62-7.33,136.44,58.84,182.43,117.51,81.68,166.53,212.75,134.56,352.21-1.63,7.1-3.49,14.17-5.66,21.12-6.3,20.18-14.67,25.52-36,23.33-14.7-9.58-17.95-21.84-12.72-39,36-118-3.92-246.23-111.05-317.91-30.49-20.4-56.45-45.65-72.75-80-27.36-57.53-20.61-114,.55-171.43,54.56-148.11-32.36-309.63-178.87-357.89-106.32-35-201-7.12-282.77,65.79-74.14,66.09-109.58,153.08-126.67,248.77-5.22,29.24-4.82,28.51,24.25,30,109.16,5.69,198.79,50,260.75,141.05,69.62,102.26,73.44,213.57,34.23,327.83-21.27,62-56.91,115.88-100.84,164.26-5.7,6.27-8.45,9.83-.65,17.37,49.75,48.09,104.94,88.13,171.41,108.91,127.27,39.81,241.14,21.36,332.81-83.06,11.14-12.69,23-17.24,38.6-9.82,14.36,17.92,14.33,26.21-.64,43.74-87.58,102.56-200.08,134.08-329.5,112.72-95.44-15.76-173.85-65.33-242.65-131.2-10.26-9.83-15.72-12.49-28.19-1.66-88.05,76.49-190.33,127.35-301.05,161.67-111.15,34.46-224.67,50.9-341.17,39-53.63-5.47-105.84-17.57-156-37.74-2.68-1.07-5.31-3.74-8.54-1.11l-77.8-40.55c.64-3.33-2-4.35-4.07-5.77-20.71-14.1-40.31-29.67-57.66-47.72C16.16,1070.44-23.45,958.82,14,825.64c3.56-12.66,11.64-23.95,11.33-37.73ZM1144.71,908.83c7-13.4,15-26.39,20.67-40.31,5.87-14.34,10.24-29.42,14-44.48,32.74-130.06-11.28-286.4-171.82-347-93-35.14-182-23.19-264.41,33.37C707.8,534.66,684.9,570.3,658.6,603c-41.84,52-96.74,75.21-163.42,69.8-31.44-2.56-59.91-16.21-89.87-24.25-83.49-22.38-160.76-7.38-232.08,40.76C73.41,756.66,26.67,884.62,63,998.07c36,112.55,116.52,182,224.68,221.93,81.74,30.14,167,38.38,253.15,31.23,157.89-13.08,304-62,434.37-153.14C1046.16,1048.48,1106.23,987.9,1144.71,908.83Z"/></g></g></svg>