<svg xmlns="http://www.w3.org/2000/svg" viewBox="0 0 787.03 1138.46"><defs><style>.cls-1{fill:#987bb7;}</style></defs><g id="Layer_2" data-name="Layer 2"><g id="Layer_4" data-name="Layer 4"><path id="_4" data-name="4" class="cls-1" d="M763.12,1026.16c-15.6-7.42-27.46-2.87-38.6,9.82C632.85,1140.4,519,1158.85,391.71,1119c-66.47-20.78-121.66-60.82-171.41-108.9-7.8-7.55-5.05-11.11.65-17.38,43.93-48.38,79.57-102.26,100.84-164.26C361,714.24,357.18,602.93,287.56,500.67c-62-91-151.59-135.36-260.75-141-29.07-1.52-29.47-.79-24.25-30C19.65,233.9,55.09,146.91,129.23,80.82,211,7.91,305.68-20,412,15,558.51,63.29,645.42,224.81,590.87,372.92c-21.16,57.43-27.91,113.9-.55,171.43,16.3,34.3,42.26,59.55,72.75,79.95,107.13,71.68,147,200,111,317.91-5.23,17.12-2,29.39,12.72,39Q775,1003.67,763.12,1026.16ZM610.28,713.72c13.2,7.13,28.05,4.14,36.24-7.29,7.07-9.88,5.35-24.09-5.22-33.78-7.62-7-16.39-12.69-24.54-19.1-61.51-48.29-94.53-110.95-95.87-189.7-.61-36,9.79-69.77,20.31-103.63,5.13-16.51-1.34-28.32-16.4-33.72-12.45-4.46-24.25,1.1-31.18,16.06-13.92,30-21.54,61.94-24.21,94.78C459.64,557.61,518.53,654.46,610.28,713.72ZM503.42,230.62c11,6.91,21.28,4.46,30.37-3.05,9.91-8.19,9.71-19.63,5.48-30.08C518,144.89,481,106,432.18,78.08c-13.16-7.54-30.51-2.81-37.47,8.86-6.84,11.47-2.39,27.71,11.16,36.16,37.42,23.35,67.85,52.79,85.19,94.25C493.49,223.17,497.32,228.18,503.42,230.62Z"/></g></g></svg>