<svg xmlns="http://www.w3.org/2000/svg" viewBox="0 0 1138.78 796.44"><defs><style>.cls-1{fill:#ea64a1;}</style></defs><g id="Layer_2" data-name="Layer 2"><g id="Layer_4" data-name="Layer 4"><path id="_5" data-name="5" class="cls-1" d="M1094,451.62c-38.48,79.08-98.55,139.65-169.51,189.27C794.1,732,648,780.94,490.08,794c-86.18,7.14-171.41-1.1-253.15-31.24C128.77,722.9,48.28,653.41,12.25,540.87-24.08,427.41,22.66,299.45,122.48,232.09,193.8,184,271.07,168.94,354.56,191.33c30,8,58.43,21.69,89.87,24.24C511.11,221,566,197.77,607.85,145.78c26.3-32.69,49.2-68.32,84.58-92.61C774.81-3.4,863.8-15.34,956.84,19.8c160.54,60.64,204.56,217,171.82,347-3.79,15.06-8.16,30.13-14,44.48C1108.93,425.24,1100.94,438.22,1094,451.62ZM343.58,296.86c25,9.29,53.24,18.67,82.83,21.53,123.35,12,217.24-37.71,286.19-138.46,8-11.68,5-28.84-5.87-36.42-12.26-8.58-26.34-6.71-36.21,5.17-4.64,5.58-8.58,11.73-13,17.52-59.31,77.83-136.8,112.41-234.6,98.32-20.12-2.89-39.4-8.95-58.38-16.27-15.67-6-32.42-.27-38.07,12S327.38,288.49,343.58,296.86ZM951.23,72.47c-43.31-19.47-91.53-25.42-141.5-15-20.07,4.17-28.61,14.8-26.27,30.38,2.31,15.38,15.88,23.33,36,21.18,11.89-1.27,23.77-2.93,35.69-3.49,31.44-1.47,60.15,9.26,88.86,20.28,14.37,5.51,29.14-.68,34.11-12.8,5.53-13.52.45-25.8-14-33.78C960.9,77.43,957.63,75.81,951.23,72.47Z"/></g></g></svg>