<svg xmlns="http://www.w3.org/2000/svg" viewBox="0 0 1168.81 653.34"><defs><style>.cls-1{fill:#fdfdfe;}</style></defs><g id="Layer_2" data-name="Layer 2"><g id="Layer_4" data-name="Layer 4"><path id="_6" data-name="6" class="cls-1" d="M1128.31,639.29C1036.56,580,977.66,483.18,987.44,362.9c2.67-32.83,10.29-64.73,24.21-94.77,6.93-15,18.73-20.52,31.18-16.06,15.06,5.4,21.52,17.21,16.39,33.72-10.52,33.86-20.91,67.58-20.3,103.63,1.34,78.75,34.36,141.41,95.87,189.7,8.15,6.41,16.92,12.12,24.53,19.1,10.57,9.69,12.3,23.9,5.23,33.77C1156.36,643.43,1141.51,646.42,1128.31,639.29Zm-76.49-486.15c9.9-8.19,9.7-19.64,5.48-30.08C1036,70.46,999,31.6,950.21,3.65,937-3.89,919.7.84,912.74,12.51,905.9,24,910.35,40.22,923.89,48.67c37.43,23.35,67.86,52.79,85.19,94.25,2.44,5.82,6.26,10.82,12.37,13.27C1032.44,163.1,1042.73,160.65,1051.82,153.14ZM101.92,651.59c123.34,11.95,217.23-37.72,286.19-138.46,8-11.69,5-28.85-5.87-36.43C370,468.13,355.9,470,346,481.87c-4.64,5.58-8.58,11.74-13,17.52-59.3,77.84-136.8,112.42-234.6,98.33-20.12-2.9-39.39-9-58.37-16.28-15.67-6-32.42-.27-38.07,12s.89,28.24,17.08,36.61C44.12,639.35,72.33,648.72,101.92,651.59Zm383.31-261c-20.06,4.16-28.6,14.8-26.26,30.37,2.31,15.39,15.88,23.33,36,21.18,11.88-1.27,23.76-2.93,35.69-3.49,31.44-1.47,60.14,9.27,88.86,20.28,14.37,5.51,29.14-.68,34.1-12.8,5.53-13.51.46-25.79-14-33.77-3.19-1.77-6.46-3.39-12.87-6.73C583.43,386.2,535.2,380.24,485.23,390.62Z"/></g></g></svg>