<svg xmlns="http://www.w3.org/2000/svg" viewBox="0 0 1917.91 1541.51"><defs><style>.cls-1{fill:#030304;}</style></defs><g id="Layer_2" data-name="Layer 2"><g id="Layer_5" data-name="Layer 5"><path id="_1" data-name="1" class="cls-1" d="M147.18,1014.44c-16.15-5.18-25.62-15.32-23.66-33.19C129,931,132,880.34,141,830.76c17.75-97.43,100.11-161.18,199.79-157.67,12.64.44,19.07-2.52,25.63-14.24C413,575.73,484.24,534.56,579.84,537.8c12.59.42,20.22-2.44,27.72-12.67,17.8-24.29,41.2-43,67.21-60C626.42,413.63,621.27,350.94,625.5,286c1.56-23.89,22.08-49.09,46-49.84,55.93-1.75,112.3-7.34,167.82,4.73,34.78,7.56,64.12,26,91.76,51.94,3.86-29.88,8.87-57.06,18.33-83.2C993.65,87.44,1106.66,5,1236.84.06c23.64-.9,36.84,8.35,37.76,26.45,1,18.71-10.17,28.27-34.5,29.66-129.39,7.41-226.93,93.1-250,219.68-.66,3.62-.69,7.37-1,11.12,6.69,1.25,8.79-4.32,12.36-7.19,35.11-28.29,74.93-44.23,120.19-44.95,36.82-.58,73.66-.5,110.48-.18,35.69.3,59.27,24.27,61,59.45,3.05,62.7-4.59,122.13-49.87,171.18,28.5,18.53,53.11,39.53,72.17,66.27,4.4,6.17,9.31,6.75,15.9,6.41,101.15-5.17,175.68,37.25,223.09,126.46,5.81,10.93,13.3,8.63,21.56,8.37,96.41-2.93,178.7,57.49,199.14,147.63,9.25,40.81,10.77,82.82,15.4,124.33q20.93,187.82,40.9,375.74c1,9.25,4.56,12,12.82,11,.61-.08,1.26.07,1.87,0,50.83-7.78,84.54,24,67.23,90.57-18.29,70.24-80,118.3-155.72,119.16-53,.6-106.11.12-159.17.12H179c-95.49,0-142.27-32.84-175.31-122.94-.52-1.43-2.44-2.36-3.7-3.52v-44.95c13.05-28.9,35.19-42.12,66.88-38.38,13.23,1.56,19-1.53,20.42-17.18,6.24-68.73,14.41-137.28,21.91-205.9,2.71-24.7,9.36-31.77,32.7-35,19.73,5.34,25.83,18.62,23.65,38.08-5.32,47.39-10,94.85-14.87,142.28-2.62,21.63-5.19,43.26-7.87,64.88-.95,7.63-.69,13.2,9.81,13.09,38-.41,76-.23,114.05-.1,6.52,0,10.29-1.54,10.91-9.12,1.87-22.93,4.41-45.8,6.7-68.7,9.79-86.6,19.74-173.19,29.34-259.81,9.19-82.92,17.81-165.91,27.26-248.8,1.5-13.25-1.94-16.88-15.44-16.53C261.29,730.3,203,781.79,195,846.14c-5.64,45.09-10.23,90.32-15.09,135.51C177.49,1004,170.34,1011.42,147.18,1014.44Zm1486.47,239.38c2.28,22.9,4.91,45.76,6.67,68.7.71,9.27,6.29,9.1,12.81,9.09,36.77,0,73.54-.32,110.3.17,10.24.14,13.09-3.48,11.76-13.14-3-21.58-5.33-43.24-7.94-64.87-2.21-21.68-4.3-43.37-6.67-65-12.5-114.6-24.39-229.28-37.91-343.76-7.11-60.21-61.05-110.45-120.36-115.56-26.69-2.3-27.13-1.43-24.21,24.62,8.7,77.41,16.87,154.87,25.47,232.29Q1618.42,1120.1,1633.65,1253.82Zm-1153.44.32c5.3-41.36,10.83-82.68,15.85-124.06,14.55-120,28.32-240.2,43.58-360.16,7.06-55.51,8.2-112,25.11-166,3.74-11.91-3.52-10.19-10.63-10-69.45,1.28-138.33,59.33-153,132-6.77,33.48-9,67.91-12.73,102Q365,1040.63,342.08,1253.52c-2.58,21.53-5,43.09-7.85,64.58-1.17,8.72-.63,13.83,10.67,13.66,38.47-.59,77-.44,115.43-.06,8.41.09,12.25-2.18,13-11C475.19,1298.45,477.86,1276.3,480.21,1254.14ZM1749.3,1388.63c-7.46-.29-14.92-.84-22.38-.84q-817.18-.06-1634.37,0c-41.32,0-44.09,4.78-24.65,42.75,1.39,2.73,3.49,5.09,5.26,7.62,22.18,35.41,55.7,47.11,95.64,47.1q789.81-.21,1579.63-.1c4.36,0,8.74.14,13.09-.07,50.22-2.38,90.08-36.48,98.77-83.91,1.65-9,1.64-14-10-13.65C1816.62,1388.41,1783,1388.33,1749.3,1388.63Zm-173.47-135.1q-22.45-209-45-418c-4-37.13-6.84-74.62-14.32-111.11-14.67-71.57-82.79-128.56-152.08-130.46-6.14-.17-15.52-3.47-11.38,9.26,15.18,46.67,16,95.6,22.36,143.64,3.37,25.19-.57,31.69-23.19,42-20.94-1.73-30.39-13.9-32.55-34.09-3.5-32.84-7.22-65.69-12-98.38-20.91-144.31-181.66-218.24-303.78-139-31.24,20.29-58.27,20.71-89.59.25-115.2-75.25-268-13.82-300.75,119.85-6,24.32-7.47,49.27-10.47,74q-21.85,180.09-43.28,360.23c-7.19,60.64-13.81,121.35-20.69,182-5.24,20-4.34,40.88-8.71,60.81-3.48,15.87,2.5,17.36,15.83,17.28,82.94-.48,165.88-.24,248.82-.24q60.79,0,121.6,0c7.69,0,15.13,1.07,14.6-10.86-1-22.34-1.09-44.73-1.57-67.1.31-7.46.88-14.92.88-22.37q.07-245.14.1-490.27c0-9.33-.17-18.85,1.58-27.94,2.7-14,12.44-21.32,26.65-21.32s23.95,7.3,26.66,21.33c1.75,9.08,1.6,18.6,1.6,27.93q.13,245.13.1,490.27c0,7.45.57,14.91.88,22.37-.47,19.87-.1,39.82-1.69,59.6-1.2,14.82,3.62,18.75,18.46,18.68,121.6-.62,243.2-.35,364.81-.35,3.12,0,6.24-.13,9.35,0,6.79.31,10.59-1.53,9.35-9.61-3.5-22.71-6.52-45.49-9.73-68.24-.65-8.67-1-17.36-2-26-12-101.24-23.78-202.51-36.35-303.67-2.53-20.38,3.46-33.87,23.1-40.64,20.81,1.44,30.84,13,33.11,33.38q9.4,84.47,19.71,168.85c6.87,56.17,14.25,112.28,21.41,168.41,2.35,22.17,5,44.31,6.9,66.52.74,8.86,4.59,11.13,13,11,38.47-.39,77-.54,115.42,0,11.31.17,11.83-4.94,10.66-13.66C1580.8,1296.61,1578.42,1275.06,1575.83,1253.53ZM748.76,290.85c-18.11,0-36.21-.06-54.31,0-6.09,0-12.68-1.26-13.16,8.56-2.27,46.49,1.15,91.22,34.54,128.18,8.12,9,15.27,14.57,28.72,9.6a119.35,119.35,0,0,1,47.8-7.37c12.61.7,17.26-4,19.35-16,5.91-33.76,21.82-63,48.5-84.13,16.4-13,8.23-16.3-3.63-22.91C822.54,287.86,785.52,290.55,748.76,290.85Zm296,27.61c34.47,25.73,55.48,58.59,62.5,99.62,1.71,9.93,6.46,11.71,15,11.52a156.61,156.61,0,0,1,51.46,7.58c12,3.85,19.26.39,27.25-8.34,34-37.16,38.09-82.16,35.77-129.25-.48-9.74-6.7-8.75-12.89-8.74-36.1.06-72.23-.8-108.28.58C1089.8,292.41,1066.05,301.17,1044.74,318.46Zm-85.9,29.42c-43.53.05-82.15,31.45-92,74-2.26,9.79-1,14.34,9.79,17.14a217.16,217.16,0,0,1,72.43,33.91c7.27,5.23,12.76,5,20-.14A217.48,217.48,0,0,1,1041.5,439c11.19-2.87,11.66-7.8,9.44-17.28C1040.93,379,1002.44,347.83,958.84,347.88Z"/></g></g></svg>