<svg xmlns="http://www.w3.org/2000/svg" viewBox="0 0 1804.81 97.75"><defs><style>.cls-1{fill:#6fc9e9;}</style></defs><g id="Layer_2" data-name="Layer 2"><g id="Layer_5" data-name="Layer 5"><path id="_2" data-name="2" class="cls-1" d="M1693.05,1.16C1726.7.85,1760.37.93,1794,0c11.66-.31,11.67,4.68,10,13.66-8.69,47.42-48.56,81.53-98.77,83.9-4.36.21-8.73.08-13.1.08q-789.81,0-1579.62.1c-39.94,0-73.47-11.69-95.64-47.11C26.26,50.4,35.61,50,45,50q773.93-.06,1547.86,0C1634.22,49.94,1667.06,32.66,1693.05,1.16ZM1670.67.31Q853.47.25,36.29.27C-5,.27-7.8,5.05,11.65,43c1.39,2.72,3.49,5.08,5.26,7.61C26.26,50.4,35.61,50,45,50q773.93-.06,1547.86,0c41.4,0,74.24-17.28,100.23-48.78C1685.59.86,1678.13.31,1670.67.31Z"/></g></g></svg>