<svg xmlns="http://www.w3.org/2000/svg" viewBox="0 0 1233.74 660.68"><defs><style>.cls-1{fill:#f6b2b9;}</style></defs><g id="Layer_2" data-name="Layer 2"><g id="Layer_5" data-name="Layer 5"><path id="_3" data-name="3" class="cls-1" d="M1021.39,290q-5.61-47.33-11.24-94.65c22.62-10.3,26.56-16.79,23.2-42-6.41-48-7.18-97-22.36-143.63C1006.85-3,1016.22.34,1022.37.51c69.29,1.9,137.41,58.88,152.08,130.46,7.48,36.48,10.27,74,14.31,111.1q22.79,209,45,418l-138.11.62c-7.16-56.14-14.54-112.24-21.41-168.42s-13.44-112.53-19.72-168.85C1052.24,303.06,1042.2,291.47,1021.39,290ZM138.13,660.67C143.42,619.32,149,578,154,536.61c14.55-120,28.32-240.2,43.58-360.15,7.07-55.52,8.2-112,25.12-166C226.4-1.49,219.15.24,212,.37,142.58,1.66,73.7,59.71,59,132.33c-6.78,33.49-9,67.92-12.74,102Q23,447.18,0,660.06Z"/></g></g></svg>