<svg xmlns="http://www.w3.org/2000/svg" viewBox="0 0 556.53 148.53"><defs><style>.cls-1{fill:#32ac65;}</style></defs><g id="Layer_2" data-name="Layer 2"><g id="Layer_5" data-name="Layer 5"><path id="_4" data-name="4" class="cls-1" d="M68,.29c36.76-.29,73.78-3,107.82,16,11.85,6.61,20,9.91,3.62,22.91C152.78,60.34,136.88,89.56,131,123.32c-2.1,12-6.74,16.68-19.35,16a119.54,119.54,0,0,0-47.81,7.36c-13.44,5-20.6-.61-28.71-9.59C1.7,100.11-1.72,55.37.56,8.89,1-.93,7.63.36,13.71.33,31.82.24,49.92.29,68,.29ZM426.51,127.53c1.7,9.93,6.45,11.71,15,11.52A156.57,156.57,0,0,1,493,146.63c12,3.85,19.27.38,27.25-8.35C554.22,101.13,558.32,56.12,556,9,555.51-.7,549.29.28,543.1.29,507,.35,470.87-.5,434.83.88c-25.77,1-49.52,9.74-70.82,27C398.48,53.64,419.48,86.5,426.51,127.53Z"/></g></g></svg>