<svg xmlns="http://www.w3.org/2000/svg" viewBox="0 0 1625.34 905.94"><defs><style>.cls-1{fill:#ec6470;}</style></defs><g id="Layer_2" data-name="Layer 2"><g id="Layer_5" data-name="Layer 5"><path id="_5" data-name="5" class="cls-1" d="M5.27,666.55c23.16-3,30.31-10.42,32.72-32.78,4.86-45.19,9.45-90.42,15.1-135.51,8-64.35,66.29-115.85,130.45-117.47,13.5-.34,16.94,3.28,15.44,16.54-9.44,82.89-18.07,165.87-27.26,248.79-9.6,86.63-19.55,173.21-29.34,259.81l-133.6,0c4.91-47.43,9.55-94.89,14.87-142.27,2.18-19.46-3.92-32.74-23.65-38.09Q2.64,696,5.27,666.55ZM787.83,905.81c.31-7.45.88-14.91.88-22.37q.07-245.13.1-490.26c0-9.33-.17-18.86,1.58-27.94,2.7-14,12.44-21.32,26.65-21.33s24,7.31,26.66,21.33c1.75,9.08,1.6,18.61,1.6,27.94q.13,245.13.1,490.26c0,7.46.57,14.91.88,22.37l390.55.09c-.65-8.66-1-17.36-2-26-12-101.24-23.78-202.5-36.35-303.67-2.53-20.37,3.46-33.86,23.1-40.63q-5.62-47.33-11.24-94.65c-20.94-1.73-30.39-13.9-32.55-34.09-3.5-32.85-7.22-65.7-12-98.39C1144.91,164.18,984.16,90.26,862,169.55c-31.24,20.29-58.27,20.7-89.59.25C657.25,94.55,504.49,156,471.7,289.65c-6,24.32-7.47,49.26-10.47,74Q439.38,543.72,418,723.86c-7.19,60.65-13.81,121.36-20.69,182Zm837.51.07c-2.21-21.67-4.3-43.36-6.67-65-12.5-114.61-24.39-229.28-37.91-343.77-7.11-60.21-61-110.45-120.36-115.56-26.69-2.3-27.13-1.42-24.21,24.63,8.7,77.41,16.87,154.87,25.47,232.29q14.85,133.75,30.08,267.49ZM724.94,74c-2.27,9.79-1,14.34,9.78,17.14A217,217,0,0,1,807.15,125c7.27,5.22,12.76,5,20-.14a217.28,217.28,0,0,1,72.48-33.82c11.19-2.87,11.66-7.8,9.44-17.28C899,31.09,860.53,0,816.94,0S734.78,31.44,724.94,74Z"/></g></g></svg>