<svg xmlns="http://www.w3.org/2000/svg" viewBox="0 0 1250.32 78.24"><defs><style>.cls-1{fill:#f2969d;}</style></defs><g id="Layer_2" data-name="Layer 2"><g id="Layer_5" data-name="Layer 5"><path id="_6" data-name="6" class="cls-1" d="M8.28,0,146.41.61c-2.35,22.17-5,44.32-6.89,66.53-.74,8.86-4.58,11.13-13,11-38.47-.38-76.95-.53-115.42.06C-.2,78.41-.74,73.3.43,64.58,3.31,43.09,5.7,21.53,8.28,0ZM1110.81,67.14c.74,8.86,4.59,11.13,13,11,38.47-.38,77-.53,115.42.06,11.3.17,11.83-4.94,10.66-13.66-2.89-21.49-5.28-43-7.86-64.57L1103.91.62C1106.26,22.79,1108.94,44.93,1110.81,67.14Z"/></g></g></svg>