<svg xmlns="http://www.w3.org/2000/svg" viewBox="0 0 1633.03 78.28"><defs><style>.cls-1{fill:#ec616c;}</style></defs><g id="Layer_2" data-name="Layer 2"><g id="Layer_5" data-name="Layer 5"><path id="_7" data-name="7" class="cls-1" d="M396.71.09,787.28,0c.47,22.37.56,44.76,1.56,67.11C789.38,79,781.93,78,774.25,78q-60.81-.09-121.61,0c-82.94,0-165.88-.23-248.82.25-13.32.07-19.31-1.42-15.83-17.29C392.36,41,391.46,20.05,396.71.09ZM844,59.61c-1.19,14.82,3.62,18.75,18.46,18.67,121.6-.61,243.21-.34,364.81-.35,3.12,0,6.24-.13,9.35,0,6.79.31,10.59-1.53,9.35-9.6-3.5-22.71-6.51-45.5-9.72-68.25L845.72,0C845.25,19.88,845.63,39.82,844,59.61ZM8.22.07l133.6,0c-2.28,22.9-4.82,45.78-6.7,68.7-.62,7.58-4.38,9.15-10.91,9.12-38-.12-76-.3-114,.1C-.34,78.16-.59,72.58.35,65,3,43.34,5.61,21.7,8.22.07ZM1497.85,68.83c.71,9.26,6.29,9.1,12.81,9.09,36.77,0,73.54-.32,110.3.17,10.24.13,13.09-3.48,11.77-13.15-3-21.58-5.33-43.24-8-64.87l-133.6,0C1493.46,23,1496.09,45.89,1497.85,68.83Z"/></g></g></svg>