<svg xmlns="http://www.w3.org/2000/svg" viewBox="0 0 131.87 622.57"><defs><style>.cls-1{fill:#e5e5e4;}</style></defs><g id="Layer_2" data-name="Layer 2"><g id="Layer_9" data-name="Layer 9"><path id="_1" data-name="1" class="cls-1" d="M131.87,1.79c-5.11,5.54-3.19,12.4-3.2,18.74-.08,176.84-.28,353.67.4,530.51.05,13-7.72,24.79-3.62,37.83L97.71,616.61,95.2,614.2C61.32,604,45.41,582.9,45.4,547.9q-.06-265.57,0-531.14c0-5,.57-10,.87-15ZM15,.37,10.09,0l.23.05L0,1.81C4.86,7.49,2.8,14.32,2.81,20.64q.21,258.3,0,516.59c0,19.09.55,37.84,7.38,55.91l21.34,21.34c17.37,7.2,35,10.81,53.79,5.67,4.13-1.14,7.39-2.59,9.85-5.95C61.32,604,45.41,582.9,45.4,547.9q-.06-265.57,0-531.14c0-5,.57-10,.87-15Z"/></g></g></svg>