<svg xmlns="http://www.w3.org/2000/svg" viewBox="0 0 869.1 587.87"><defs><style>.cls-1{fill:#fed472;}</style></defs><g id="Layer_2" data-name="Layer 2"><g id="Layer_9" data-name="Layer 9"><path id="_2" data-name="2" class="cls-1" d="M0,392c6-.32,12-.92,18-.92q415.79,0,831.57,0c6.51,0,13-.53,19.52-.8.75,31.34-6.84,61.45-14.9,91.23-10,37.06-21.76,73.68-42.84,106.4-5.5-.28-11-.79-16.49-.82C570,586,345.06,588.94,120.19,585.52c-19.49-.3-39.08-1.7-58.55,1.1-.55-.6-1.11-1.19-1.68-1.76-8.28-17.06-17.69-33.66-24.62-51.24C17.36,488,3.47,441.26,0,392ZM745,1.21c-5.48.37-11,1-16.44,1-127.63.05-255.28,1.34-382.88-.48C268.82.69,192,2.33,115.19,0c-.78.54-1.55,1.09-2.3,1.67C78.41,44.83,50.73,91.89,31.51,143.77,25.12,161,19,178.39,12.8,195.71c.66.64,1.34,1.26,2,1.88,6-.33,12-.94,18-.94q399.54,0,799.08-.05c6.39,0,13.12,1.73,19.13-2.16C828.93,122.75,796,57,745,1.21Z"/></g></g></svg>