<svg xmlns="http://www.w3.org/2000/svg" viewBox="0 0 759.23 248.53"><defs><style>.cls-1{fill:#1ba188;}</style></defs><g id="Layer_2" data-name="Layer 2"><g id="Layer_9" data-name="Layer 9"><path id="_4" data-name="4" class="cls-1" d="M531,186.47c5.79-43,6.66-85.93-.36-128.87,36.72-21.65,73.18-44,115.22-54.18C671-2.7,695.7-.83,719.23,10.85c26.87,17.27,38.24,43,39,73.81.71,27.55,2.52,55.27-1.9,82.64-10.67,66-60.57,96.22-123.47,73.24C596.67,227.3,562.81,208.52,531,186.47ZM219.69,53.15C178.84,30.34,139.57,3.9,90.66.5c-20.2-1.4-38.33,3.85-55.8,13C11.56,31.17,1.27,55.47.49,83.88c-.64,23.54-.84,47.18.55,70.67,1.73,29.32,10.52,56.5,34.54,75.55,31.21,24.74,65.68,22,99.4,6.85,29.6-13.31,58-29.42,86.86-44.29C209.59,146.34,211.71,99.79,219.69,53.15Z"/></g></g></svg>