<svg xmlns="http://www.w3.org/2000/svg" viewBox="0 0 295.04 586.02"><defs><style>.cls-1{fill:#f8b272;}</style></defs><g id="Layer_2" data-name="Layer 2"><g id="Layer_9" data-name="Layer 9"><path id="_5" data-name="5" class="cls-1" d="M182.15,391.88c3.47,49.29,17.37,96.05,35.34,141.65,6.93,17.58,16.34,34.19,24.62,51.23-7,.21-14,.58-21,.61q-82,.39-164,.65A467.63,467.63,0,0,1,0,390.21l180.06-.14C180.77,390.67,181.46,391.27,182.15,391.88Zm31.52-248.2C232.88,91.8,260.56,44.74,295,1.58q-69.21-.51-138.43-1C145.57.47,134.53.19,123.5,0A429.83,429.83,0,0,0,87.08,47.53c-30,46-55,94.18-68.07,147.92,58.65,1.64,117.29,1.35,175.94.17C201.18,178.3,207.27,160.94,213.67,143.68Z"/></g></g></svg>