<svg xmlns="http://www.w3.org/2000/svg" viewBox="0 0 875.49 1314.63"><defs><style>.cls-1{fill:#b2d38f;}</style></defs><g id="Layer_2" data-name="Layer 2"><g id="Layer_9" data-name="Layer 9"><path id="_6" data-name="6" class="cls-1" d="M748.25,183.63c-5.48.37-11,1.05-16.44,1.06-127.62,0-255.27,1.33-382.87-.49-76.83-1.09-153.66.55-230.46-1.78,19.82-26,43.07-48.44,68.18-69.52A556.1,556.1,0,0,1,317.27,31.33C342.89,19.83,370.15,13,396,2.28l-.2,0c2.73,1.16,2.91-.17,2.28-2.32,90,9.21,172.54,39,247.37,89.9a541.65,541.65,0,0,1,92,79.45C741.52,173.75,746.18,177.71,748.25,183.63ZM835.17,379q-399.54.11-799.09.05c-6,0-12,.61-18,.94C6.63,415.87,1.56,452.89.3,490.3c-.92,27.38.52,54.85.9,82.28.7.6,1.4,1.2,2.09,1.81,6-.32,12-.92,18-.92q415.79,0,831.58,0c6.5,0,13-.53,19.51-.8.86-6.92,2.17-13.81,2.51-20.76,3-59.49-4.48-117.77-20.56-175C848.28,380.75,841.56,379,835.17,379Zm-770.24,390c19.47-2.8,39.06-1.41,58.56-1.11,224.87,3.43,449.75.45,674.62,1.53,5.5,0,11,.54,16.49.83-17.66,39-42.89,73-71,104.78-16.56,18.72-35.16,35.64-52.84,53.36-23.53-11.68-48.19-13.55-73.39-7.42-42,10.21-78.5,32.53-115.23,54.17-28.29-60.79-72.4-76-127.21-72.05l-2.57,2,.22,0c-19.07-6.13-38.67-1.67-58-2.77-39.87-2.28-75.59,7-102.94,38.49-29.26-23.65-55.89-50.15-81.41-77.63A398.5,398.5,0,0,1,64.93,769.05Zm312.49,405.6c23.26,2.31,45.91.13,67.65-9,12.72,19.69,25.64,39.25,38,59.13a107.16,107.16,0,0,1,10.38,21.48c8.78,25.38.25,45.15-24.18,56.8-18.44,8.8-38.45,10.14-58.4,11.54H325.28l-31.23-1.41-4.93-.37.24.05c-3.76-2.4-7.36-5.1-11.3-7.15-23.58-12.29-31.59-29-25.17-54.55a129.62,129.62,0,0,1,17.84-39.5c7.64-11.63,14.94-23.48,22.39-35.23l79.42-2.37-.14,0Z"/></g></g></svg>