<svg xmlns="http://www.w3.org/2000/svg" viewBox="0 0 187.87 274.65"><defs><style>.cls-1{fill:#58bebb;}</style></defs><g id="Layer_2" data-name="Layer 2"><g id="Layer_9" data-name="Layer 9"><path id="_7" data-name="7" class="cls-1" d="M187.83,272.29l-79.42,2.36c-17.75-1.51-35.07-4.72-51-13.13-21.2-13.14-37-31.22-48.7-53.07C-3.59,162.13-1.47,115.58,6.51,68.94,14.3,59.64,18,47.56,26.93,39,54.27,7.59,90-1.73,129.87.55c19.33,1.1,38.92-3.36,58,2.77-14.75,9.19-31.77,14.5-44.46,27.27-20.26,20.39-32.28,44.78-33,73.31-.71,25.95-2.85,52.12,1.46,78,6.77,40.53,28.55,69.48,67.35,84.82C182.3,267.92,185,270.39,187.83,272.29Z"/></g></g></svg>