<svg xmlns="http://www.w3.org/2000/svg" viewBox="0 0 577.66 1317.65"><defs><style>.cls-1{fill:#86c065;}</style></defs><g id="Layer_2" data-name="Layer 2"><g id="Layer_9" data-name="Layer 9"><path id="_8" data-name="8" class="cls-1" d="M182.84,575.55l-180.07.14c-7.1-66.23-.49-131.12,19-194.76,58.65,1.64,117.3,1.35,175.94.17l2,1.88c-11.48,35.86-16.55,72.88-17.81,110.28C181,520.65,182.45,548.12,182.84,575.55ZM63.34,779.74C94.82,839.32,138.44,889.11,188,934.06c17.48-9.15,35.6-14.4,55.8-13,48.92,3.4,88.18,29.84,129,52.65,7.79-9.3,11.5-21.38,20.42-29.9-29.27-23.65-55.89-50.16-81.41-77.64A397.92,397.92,0,0,1,246.57,772q-.82-.9-1.68-1.77c-7,.21-14,.58-21,.61q-82,.38-164,.65C61,774.25,62,777.11,63.34,779.74ZM300.12,185.38c19.81-26,43.07-48.43,68.18-69.51A555.69,555.69,0,0,1,498.91,34.3c25.62-11.51,52.87-18.36,78.75-29.06-6.08-6.05-14.07-4-21.17-4.4C530.36-.51,504.21-.4,478.13,2.36c-141.28,15-258.36,76.38-351.86,183.12,11,.19,22.07.46,33.11.55q69.23.57,138.43,1C298.57,186.48,299.34,185.93,300.12,185.38Zm111.47,998.07c-13,21.31-29.48,40.65-36.83,65.14-9.78,32.57,2.67,55.77,35,64.73,16.64,4.61,33.79,4.39,50.88,4.3l10.32-1.76c-3.75-2.4-7.36-5.1-11.29-7.15-23.58-12.29-31.6-29-25.17-54.55a129.62,129.62,0,0,1,17.84-39.5c7.63-11.63,14.94-23.48,22.39-35.24-17.75-1.51-35.07-4.72-51.06-13.13C419.64,1172,415.23,1177.49,411.59,1183.45Z"/></g></g></svg>