<svg xmlns="http://www.w3.org/2000/svg" viewBox="0 0 325.42 823.98"><defs><style>.cls-1{fill:#f8b272;}</style></defs><g id="Layer_2" data-name="Layer 2"><g id="Layer_7" data-name="Layer 7"><path id="_1" data-name="1" class="cls-1" d="M174.35,139.47c-6,5.66-3.52,13.05-3.53,19.66-.14,165.62-.8,331.24.33,496.85.33,48,22.87,87.12,58.06,120,27.64,25.8,60.79,38.29,96.21,47.14-53.45.16-107,1.83-160.34.13C81,820.55,1,737.51.79,653.28c-.5-166-1.77-332.13.6-498.15C2.42,83,42.48,32,106.68,0c2,35.45,12.08,68,38.51,92.82C159.37,106.14,169.54,120.84,174.35,139.47Z"/></g></g></svg>