<svg xmlns="http://www.w3.org/2000/svg" viewBox="0 0 1765.65 839.7"><defs><style>.cls-1{fill:#ffd472;}</style></defs><g id="Layer_2" data-name="Layer 2"><g id="Layer_7" data-name="Layer 7"><path id="_10" data-name="10" class="cls-1" d="M1761.83,145.39c-14.43-72.52-76.26-132.16-147-141.87C1602.61,33,1586.28,37.7,1562,18.57c-7.82-6.15-15.59-12.38-23.38-18.57q-289.5.21-579,.38C913.73.41,867.84.17,822,.05,784.82,28.6,743,27.76,700.34,18.46,678.48,13.69,657.09,6.75,635.5.79c-29.77,75.43-80,130.16-158.29,156.5-4.11,1.38-8.49,2-12.75,2.9-64.84,20.06-126.91,13.88-186.09-19.65-16.47-4.07-26.62-20.06-43.61-23.16-22.25,23.7-42.17,49.56-67.53,70.38C105,238.86,45.47,227.27,4,155.52c-6,5.66-3.52,13-3.53,19.66C.37,340.8-.29,506.42.84,672c.33,48,22.87,87.12,58.06,120,27.64,25.8,60.79,38.29,96.21,47.14,2.51.19,5,.54,7.53.54q713.31,0,1426.63-.2c73-.05,140.61-50.3,165.54-119.73,3.31-9.22,3.26-19.91,10.84-27.47V155.47C1762.05,153,1762.55,149,1761.83,145.39ZM21.07,434.88v43.56A186.61,186.61,0,0,1,21.07,434.88Z"/></g></g></svg>