<svg xmlns="http://www.w3.org/2000/svg" viewBox="0 0 286.48 287.81"><defs><style>.cls-1{fill:#bf582e;}</style></defs><g id="Layer_2" data-name="Layer 2"><g id="Layer_7" data-name="Layer 7"><path id="_2" data-name="2" class="cls-1" d="M268.07,215.31c-11,17.32-25.89,31.12-40.52,45.18-13.53,6.9-26,16.18-41.27,19.22-3.12-2-6-4.54-9.4-6C114.38,246.5,78.3,172.75,99.3,103.06c13.8-45.83,45.29-75.21,87.2-95.16,79.57,24.2,121,112.61,89.23,190.27C273.36,204,270.63,209.6,268.07,215.31ZM5.11,105c-10.88,40.1-3.59,78,14.35,114.49l38.88,41.24c36.33,22.35,74.82,33.74,117.6,23,3.56-.89,6.9-2.66,10.34-4-3.12-2-6-4.54-9.4-6C114.38,246.5,78.3,172.75,99.3,103.06c13.8-45.83,45.29-75.21,87.2-95.16C112.52-19.39,26.34,26.71,5.11,105Z"/></g></g></svg>