<svg xmlns="http://www.w3.org/2000/svg" viewBox="0 0 488.69 438.98"><defs><style>.cls-1{fill:#ef7e9c;}</style></defs><g id="Layer_2" data-name="Layer 2"><g id="Layer_7" data-name="Layer 7"><path id="_6" data-name="6" class="cls-1" d="M0,283.18c4.06-17.48-.45-35.07,1.43-53C5.44,192,17.72,157.37,35.36,124c1.13-2.14,1.33-4.76,2-7.16,1.24-.1,2.47-.25,3.7-.46,26,13.74,53.55,9.59,73.32-11,19-19.78,22.74-45.4,10.08-68.46a18.05,18.05,0,0,1,.63-3.57C161.93,13.76,201.15.37,242.79,0c99.12-.85,175.92,40.84,228.13,126,3.17,5.16,4.14,12.18,11.42,14,5.21,18,4.45,36.63,6.35,55-1,28.68-4.78,56.94-12.89,84.54C446,355,395.78,409.74,317.51,436.08c-4.11,1.39-8.49,2-12.73,2.9-.82-6.21-1.52-12.43-2.49-18.61-7.66-48.76-43.7-80.57-91.33-80.68s-84,31.26-92.29,79.64c-16.47-4.07-26.62-20.06-43.61-23.16-1.11-13.62-15.6-15.2-22-24.39-9.6-13.79-20.88-26.42-31.43-39.55C15.4,315.45,3.57,301.13,0,283.18Zm350.68,19.13c31.25,0,57.22-25.88,56.47-56.3-.72-29-27.44-55.58-56.18-55.83-30.59-.26-56.45,25.49-56.67,56.41C294.09,278,318.66,302.3,350.68,302.31Z"/></g></g></svg>