<svg xmlns="http://www.w3.org/2000/svg" viewBox="0 0 915.19 536.24"><defs><style>.cls-1{fill:#e04b84;}</style></defs><g id="Layer_2" data-name="Layer 2"><g id="Layer_7" data-name="Layer 7"><path id="_7" data-name="7" class="cls-1" d="M67.67,472.58c-4.81-18.63-15-33.33-29.16-46.65C12.08,401.11,2,368.56,0,333.11c.24-20.65,13.19-39.64,7.91-61,2-1.26,5.15-2.07,5.89-3.86,23-55.22,52.19-70.46,111.77-61.3,28,4.31,54.33,14.75,82.05,19.69,0,3.82,0,7.65,0,11.47-25.44-3.3-50.78-7.51-76.56-7.62-16.4-.08-26.16,8.47-29.06,23.73-3.31,17.37,5,29,22.45,33.08,9.86,2.31,19.95,3.6,34.71,6.18-23,6.48-41.56,11.68-60.11,17-22,6.28-32.38,21.77-27.07,40.16,4.82,16.74,21.93,23.32,43.55,17,14.44-4.22,29-8.11,43.48-12.14-1.13,5.75-3.61,8.46-6.19,11.08-16.05,16.29-18.23,29.47-7,42.49,12.68,14.69,28.42,15,46.59,1.2,17.45-13.3,35-26.48,52.49-39.72,10.56,13.13,21.83,25.76,31.44,39.55,6.4,9.19,20.88,10.77,22,24.39-22.25,23.7-42.17,49.56-67.53,70.38C168.64,555.92,109.1,544.34,67.67,472.58ZM764,335.52c42.66,9.3,84.48,10.14,121.61-18.41,24.74-27.78,31.89-60,25.79-96.31-2-12-6.07-23.45-2.31-36.92,15.43-55.31,1.84-103.1-41.93-141.12a39.19,39.19,0,0,1-11.2-16.52c-3.9.22-7.56-.47-10.46-3.28-39.09-37.91-81.55-23.29-118.83,3.7C702.93,43.83,689.12,70.51,665.06,87c.34,7.12,4,11,11.17,11.31,19.36-14.94,38.23-30.58,58.23-44.6,13.89-9.73,27.85-6.67,38.18,6.73C782.36,73,782,86,770.07,97.43c-5.87,5.66-12.23,10.79-18.35,16.19a10.29,10.29,0,0,0-4,7.39c19.56-5.84,39-12,58.72-17.42,13.45-3.71,26.78-3,36.28,8.73,8.23,10.18,8.72,22.06,2.13,33.42-5.8,10-16.38,13.35-26.63,16.44-14.37,4.32-28.9,8.08-44.28,12.33,5,5.48,10.85,5.75,16.44,6.74,16.62,2.93,29.48,15.95,29,29.24-.65,16.32-14.47,28.25-34.19,27.56-24.43-.86-48.81-3.09-73.19-4.73-1,28.67-4.77,56.93-12.88,84.53C720.72,323.81,742.11,330.76,764,335.52Z"/></g></g></svg>