<svg xmlns="http://www.w3.org/2000/svg" viewBox="0 0 854.42 482.26"><defs><style>.cls-1{fill:#b8245b;}</style></defs><g id="Layer_2" data-name="Layer 2"><g id="Layer_7" data-name="Layer 7"><path id="_8" data-name="8" class="cls-1" d="M206.12,288.56c-27.73-4.93-54-15.38-82.05-19.69C64.49,259.71,35.32,275,12.3,330.17c-.75,1.79-3.88,2.6-5.89,3.86-6.77-24.53-8.92-49.48-2.8-74.24,11.15-45.06,55.54-69.25,108.3-60.14,34.53,6,68,16.2,101.63,25.63C210.32,246.28,204,266.92,206.12,288.56Zm0,11.47c-25.44-3.3-50.78-7.51-76.55-7.62-16.4-.08-26.16,8.48-29.07,23.73-3.31,17.37,5,29,22.45,33.08,9.86,2.31,20,3.6,34.71,6.18-23,6.49-41.56,11.68-60.1,17-22,6.28-32.38,21.77-27.08,40.16,4.83,16.74,21.93,23.32,43.55,17,14.44-4.22,29-8.11,43.48-12.14-1.12,5.75-3.61,8.46-6.18,11.08-16.06,16.29-18.24,29.47-7,42.49,12.68,14.69,28.42,15,46.58,1.2,17.45-13.3,35-26.48,52.5-39.71-6.23-16.79-18.06-31.11-21.63-49.06C207.89,357.23,205.71,328.88,206.16,300Zm498-59.78c5.21,18,4.44,36.63,6.33,55,24.39,1.64,48.77,3.87,73.2,4.73,19.71.69,33.53-11.24,34.18-27.56.53-13.29-12.34-26.31-29-29.24-5.6-1-11.45-1.25-16.45-6.74,15.39-4.25,29.92-8,44.28-12.33,10.26-3.08,20.83-6.45,26.63-16.44,6.6-11.36,6.1-23.24-2.12-33.42-9.5-11.76-22.84-12.44-36.28-8.73-19.68,5.42-39.16,11.58-58.73,17.42a10.3,10.3,0,0,1,4-7.39c6.11-5.4,12.48-10.53,18.34-16.19,11.89-11.46,12.3-24.41,2.57-37-10.33-13.4-24.28-16.46-38.17-6.73-20,14-38.88,29.66-58.23,44.61C684.19,187,700.86,211.17,704.17,240.25ZM854.42,88.18c-3.9.21-7.56-.48-10.46-3.29C804.87,47,762.41,61.6,725.13,88.59c-23.71,17.17-37.52,43.86-61.57,60.3-10.7-17.54-28.75-29.38-37.54-48.39,20.56-22.12,39.55-46,62-66C752.39-23,816-7.46,848.74,72.22,850.88,77.43,852.54,82.85,854.42,88.18Z"/></g></g></svg>