<svg xmlns="http://www.w3.org/2000/svg" viewBox="0 0 366.14 413.55"><defs><style>.cls-1{fill:#9fd5d4;}</style></defs><g id="Layer_2" data-name="Layer 2"><g id="Layer_7" data-name="Layer 7"><path id="_9" data-name="9" class="cls-1" d="M77.64,382.46c8.27-48.39,44.62-79.76,92.29-79.64s83.67,31.92,91.33,80.68c1,6.18,1.67,12.4,2.49,18.6C198.9,422.17,136.83,416,77.64,382.46ZM0,79.49c26,13.73,53.55,9.59,73.33-11C92.29,48.68,96.06,23.06,83.4,0,47.45,17.94,20.75,45.59,0,79.49ZM366.12,209.14c-.71-29-27.44-55.58-56.18-55.83-30.58-.27-56.45,25.48-56.66,56.41-.22,31.42,24.35,55.7,56.37,55.72C340.9,265.45,366.87,239.56,366.12,209.14Z"/></g></g></svg>