<svg xmlns="http://www.w3.org/2000/svg" viewBox="0 0 1942.75 1871.95"><defs><style>.cls-1{fill:#95c56b;}</style></defs><g id="Layer_2" data-name="Layer 2"><g id="Layer_10" data-name="Layer 10"><path id="_1" data-name="1" class="cls-1" d="M1507.62,1831.53,1037.5,1601.27a88.55,88.55,0,0,0-82.39,2.36l-456.2,256.74c-64,36-141.45-17-131.11-89.65l73.71-518.27a88.53,88.53,0,0,0-27.7-77.63L28.66,820.29c-54-49.72-27.56-139.78,44.75-152.4l515.68-90a88.57,88.57,0,0,0,65.27-50.33L872.53,51.65c30.59-66.72,124.41-69.4,158.76-4.54l245,462.62a88.53,88.53,0,0,0,68,46.52l520,60.44c72.91,8.48,104.45,96.88,53.38,149.59l-364.27,376a88.54,88.54,0,0,0-23.22,79.08l103.2,513.21C1647.87,1806.5,1573.54,1863.82,1507.62,1831.53Z"/></g></g></svg>