<svg xmlns="http://www.w3.org/2000/svg" viewBox="0 0 550.99 631.02"><defs><style>.cls-1{fill:#ea4d5c;}</style></defs><g id="Layer_2" data-name="Layer 2"><g id="Layer_10" data-name="Layer 10"><path id="_2" data-name="2" class="cls-1" d="M0,283.19c5.56-14.66,6-30.4,9.77-45.5C40.08,115,145.32,19.46,270.77,1.49,274.39,1,278,.5,281.63,0c15.72,4.11,31.66,7.52,47.12,12.46C387,31.09,436.48,63,475.88,110.36A329.75,329.75,0,0,1,531.1,205c11.78,31.07,16.86,63.59,19.89,96.5-22.65,17-25.81,32.54-11.19,56.3,1.61,2.62,2.1,4.6.54,7.23-6.69,11.26-5.64,22.87-1.4,34.59a320.83,320.83,0,0,1-46.78,99.51c-3,4.3-7.3,7.86-7.72,13.63-2.57,1.53-5.05,3.24-7.72,4.57-50.75,25.17-104.35,33-160.13,24.79-47.38-7-89.48-26.22-122.76-61.05-46.77-49-66.84-107.44-59.48-175.44C144.58,211,225.82,147.1,314.27,153.85c77.22,5.89,127.79,69.4,124.56,137.24-3,62.94-54.52,106.43-111,101.27-50.89-4.65-84.47-51.1-70.34-99.87,10.26-35.39,49.62-53,79.61-35.72,17.83,10.31,22.56,30.61,10.52,45.17-7.2,8.71-15.71,9.44-24.76,2.13,12.44-3.15,18.12-9.39,16.86-18.53-1.22-8.78-10.72-14.9-22.34-14.38C298,272,284,291.68,289.53,310.29c6.82,22.95,37.65,36.5,61.11,26.85,29.78-12.24,43.34-49.4,28.93-79.31-17.9-37.18-71.28-50.3-109.91-27.68-57.62,33.74-62.44,118.58-11,165,45.38,41,118.49,37.54,164.65-3.52,38.05-33.83,51.67-77.24,45.27-126.86-7.67-59.44-39.09-103-93.71-127.35-80.65-35.93-180.41-7.55-232.43,64.1-31.86,43.88-43.6,93.21-40.2,146.81,3.56,55.91,24.5,104.49,61.63,146,49.65,55.55,113.64,79.13,186.59,82.2,22.87,1,45.29-2.94,67.83-5.64a6.33,6.33,0,0,1-2.84,5,357.84,357.84,0,0,1-82.14,41.07c-17.59,6.06-35.89,9.2-53.8,13.92-1.34,0-2.68.07-4-.09C149.12,615.54,41.5,520.14,9.94,396,6,380.62,5.32,364.6,0,349.54Z"/></g></g></svg>