<svg xmlns="http://www.w3.org/2000/svg" viewBox="0 0 288.45 452.22"><defs><style>.cls-1{fill:#f1f1fa;}</style></defs><g id="Layer_2" data-name="Layer 2"><g id="Layer_10" data-name="Layer 10"><path id="_3" data-name="3" class="cls-1" d="M249.87,452.22c-17.13-8.58-23.65-25.74-32.32-40.88Q155,302.29,93.09,192.88,50,117.1,7.13,41.23c-2-3.48-3.88-7-7.13-9.52C18.78,22,37.26,11.81,54.82,0c.34,9.3,6.93,15.8,11.06,23.22,24.34,43.73,49.19,87.19,74,130.65,28.14,49.25,56.49,98.39,84.65,147.63,20.05,35.06,40.15,70.09,59.75,105.39,8.27,14.89,3.76,30.74-10.11,40.39-2.18,1.51-4.16,3.28-6.24,4.94Z"/></g></g></svg>