<svg xmlns="http://www.w3.org/2000/svg" viewBox="0 0 808.55 756.61"><defs><style>.cls-1{fill:#f6b8d5;}</style></defs><g id="Layer_2" data-name="Layer 2"><g id="Layer_10" data-name="Layer 10"><path id="_4" data-name="4" class="cls-1" d="M316.62,449.06c-22.55,2.7-45,6.61-67.84,5.64-72.95-3.07-136.93-26.65-186.59-82.2C25.06,331,4.12,282.37.57,226.46c-3.41-53.6,8.33-102.93,40.2-146.81,52-71.65,151.77-100,232.43-64.1,54.61,24.33,86,67.91,93.7,127.35,6.4,49.62-7.22,93-45.26,126.86-46.17,41.06-119.27,44.53-164.66,3.52-51.43-46.47-46.62-131.31,11-165,38.63-22.61,92-9.5,109.91,27.68,14.4,29.91.85,67.07-28.93,79.31-23.47,9.65-54.3-3.9-61.11-26.85-5.53-18.61,8.44-38.26,27.82-39.13,11.61-.52,21.11,5.6,22.33,14.38,1.27,9.14-4.41,15.38-16.86,18.53,9,7.31,17.57,6.58,24.77-2.13,12-14.56,7.3-34.86-10.53-45.17-30-17.32-69.35.33-79.6,35.72-14.14,48.77,19.45,95.22,70.34,99.87,56.5,5.16,108-38.33,111-101.27,3.23-67.84-47.35-131.35-124.57-137.24C124.15,25.18,42.91,89.09,32.67,183.73c-7.35,68,12.72,126.47,59.49,175.44,33.27,34.83,75.38,54.08,122.76,61.05,55.77,8.2,109.37.38,160.12-24.79,2.67-1.33,5.15-3,7.72-4.57,3.26-1.64,6.63-3.1,9.77-4.95,35.93-21.26,65.19-49.53,88.36-84.19,6.22,9,14.26,15.47,24.91,18.45-1.31,5.63-5.78,9.39-8.42,14.23-3.26.8-4.58,3.74-6.39,6-27.8,35.2-62,62.42-101.95,82.69C365.93,434.84,341.35,442.07,316.62,449.06ZM796.39,691.68c30.56-63.5,1.4-141.08-63.63-168.74-2.76-1.17-5.81-2-5.92-5.88l-.36.09c-4.52,4.08-10.63,4.88-15.79,7.66-2.06,3.24-5.54,4.65-8.6,6.57-39.48,24.71-60.88,60.71-61.29,106.89-.38,43.23,18.51,78.47,53.9,103.93,9.36,6.73,19.3,13.21,31.43,14.41C757.5,743.58,781.48,722.66,796.39,691.68Z"/></g></g></svg>