<svg xmlns="http://www.w3.org/2000/svg" viewBox="0 0 165.46 251.76"><defs><style>.cls-1{fill:#f29ec4;}</style></defs><g id="Layer_2" data-name="Layer 2"><g id="Layer_10" data-name="Layer 10"><path id="_5" data-name="5" class="cls-1" d="M0,243.87c31.38-13,55.36-33.94,70.26-64.93,30.56-63.5,1.41-141.08-63.63-168.73C3.87,9,.82,8.17.72,4.33,14.67,3.82,28.17.05,42.34,0c57.27-.21,110.28,43.06,121,102.93,9.84,54.81-15.64,107.09-64.54,134a37.22,37.22,0,0,0-3.26,2.26c-5.83.83-10.86,3.64-15.88,6.49-23.39,6.56-46.9,8.63-70.71,2.18C5.74,247,2.56,246.19,0,243.87Z"/></g></g></svg>