<svg xmlns="http://www.w3.org/2000/svg" viewBox="0 0 1029.93 977.42"><defs><style>.cls-1{fill:#96d5f4;}</style></defs><g id="Layer_2" data-name="Layer 2"><g id="Layer_10" data-name="Layer 10"><path id="_6" data-name="6" class="cls-1" d="M147.07,776.32c-20.52,11.76-40.9,23.74-64.35,29.11-15.8,3.62-31.46,4.36-47.46,1C15,802.25-3.35,778.32,8.59,755c1.82-3.57,2.08-6.72-.24-10.28C5.3,740,2.76,735,0,730.11V714c6.51-15.75,16.19-27.59,34.9-28.33,2.52-.1,3-2.14,3.64-4.12,9.05-29.87,41.13-37.17,69.27-11.51,17,15.5,28,34.82,35.24,56.34,3.84,11.37,6.86,23,10.25,34.52A44,44,0,0,1,147.07,776.32ZM468.5,977.42c12.49-5.72,23.24-13.06,26.37-27.72.79-3.74,3.93-3.82,7-4.31,27.89-4.38,40.15-32.11,24.57-55.91-3-4.65-3.7-8.25-1.33-13.67,8.07-18.41.13-38.74-18.05-47a71.3,71.3,0,0,0-40.14-5.39c-25.21,3.58-48.28,12.8-69.91,25.95-2.82,1.71-5.28,4.31-9.07,3.33l.08-.06-1.66,2.57c-2.86,5.32-5.52,10.72-6.54,16.75,2.12,7.33,4,14.74,6.42,22C398,929.19,414,961.13,450.41,977.42ZM938.82,148.05c24.6,4.39,48.5,4,71-8.33,18.7-10.29,26-33,14.79-49.54-5-7.29-4.82-12.46-1.52-19.81,8.22-18.29-6.4-47.49-35.2-47.15-6.25.07-8.46-1.25-11.36-6-10.88-17.8-33-22.43-50.62-11-10.58,6.9-18.45,16.23-24.66,27.19-15.13,26.67-18.13,56.17-20.56,85.84,2.16,5.89,6,10.69,10.07,15.32C906.66,139.48,922.32,145.11,938.82,148.05ZM539.8,308.1c1.61,2.62,2.1,4.6.54,7.23-6.69,11.26-5.64,22.87-1.4,34.59,8.88,12.95,20.5,20.76,36.86,18.66,4.74-.61,5.6,2.2,6.77,5.34,6.21,9,14.25,15.47,24.9,18.45,11.8,1,22.58-1.62,31.79-9.36a85.49,85.49,0,0,0,20.24-24.6c14.85-27.11,18.4-56.76,20.1-86.88-2.69-4.87-5.29-9.81-9.78-13.38L633.28,246a85.09,85.09,0,0,1-8.94-.89c-25.15-5.23-49.71-4.32-73.35,6.73C528.34,268.84,525.18,284.34,539.8,308.1Z"/></g></g></svg>