<svg xmlns="http://www.w3.org/2000/svg" viewBox="0 0 749.91 1029.62"><defs><style>.cls-1{fill:#e73645;}</style></defs><g id="Layer_2" data-name="Layer 2"><g id="Layer_10" data-name="Layer 10"><path id="_7" data-name="7" class="cls-1" d="M271.48,304c-3-32.91-8.11-65.43-19.89-96.5a329.52,329.52,0,0,0-55.22-94.66C157,65.48,107.52,33.57,49.24,14.94,33.79,10,17.84,6.59,2.12,2.48,70.73-6,135.24,7.32,194.64,41.91c89.32,52,140.47,130.67,156.84,232.33,1.27,7.89,1.55,15.94,2.29,23.92a85.36,85.36,0,0,1-8.94-.89C319.68,292,295.12,293,271.48,304Zm420.2,725.62c15.33-6.65,26-17,27.46-34.63.39-4.71,4.57-4.22,7.38-5.36,19.83-8.09,28.58-28.85,20.25-48.59a74.11,74.11,0,0,0-20-27.12c-23.83-20.87-52.66-30.75-82.85-37.61C638,877.14,633,880,628,882.8c-10.19,17.62-20.36,35.25-26.17,55s-8.78,39.81-2.21,60c7.47,23.06,28.87,32.7,51,23.16,2.65-1.14,4.87-3.36,8.2-.93,4.72,3.47,9.82,6.42,14.76,9.59Zm-143-388.07c-4.52,4.08-10.64,4.88-15.79,7.66-20.44-5.17-40.68-10.88-59.26-21.27-17.83-10-33.56-22.12-42.78-41-10.49-21.46-2.22-43.11,20.07-51.58,4.56-1.73,6-4,6.92-8.36,6.25-29.43,33.59-40.46,58-23.24,3.65,2.58,5.9,2.5,9.66.79,21.73-9.9,43-.74,50.86,21.74,7.16,20.56,4.12,41-1.83,61.12C568.79,606.81,559,624.33,548.65,641.55Zm-412.71-63A357.84,357.84,0,0,1,53.8,619.57c-17.59,6.07-35.89,9.2-53.8,13.92,28.68,4.65,57.29,3,85.87-1,27.94-3.94,54.33-13.23,80.47-23.37,18.78-9.71,37.27-19.91,54.83-31.71,39.18-29.54,71.74-64.88,94.8-108.5,1.67-3.16,4.39-6,3.58-10.11-3.27.8-4.58,3.74-6.39,6-27.81,35.2-62,62.42-102,82.69-23.11,11.73-47.69,19-72.42,25.94A6.34,6.34,0,0,1,135.94,578.5Zm76.71-76.87c-3,4.31-7.3,7.87-7.72,13.63,3.26-1.64,6.63-3.1,9.76-4.95,35.93-21.26,65.2-49.53,88.37-84.19-1.17-3.14-2-5.95-6.77-5.34-16.36,2.1-28-5.71-36.86-18.66A320.61,320.61,0,0,1,212.65,501.63Z"/></g></g></svg>