<svg xmlns="http://www.w3.org/2000/svg" viewBox="0 0 681.33 856.59"><defs><style>.cls-1{fill:#feda64;}</style></defs><g id="Layer_2" data-name="Layer 2"><g id="Layer_10" data-name="Layer 10"><path id="_8" data-name="8" class="cls-1" d="M528.59,179.7c-4.38-13.93-11.33-27-13.53-41.68C504.74,69,548.7,14.77,597.94,0a115.59,115.59,0,0,1,43.5,25.88c27.88,26.55,41.53,59,39.74,97.66-1.76,37.77-17.57,68.21-46.76,92.35-10.41,8.6-23.64,12.19-33.53,21.26-25.23-8.45-45.63-23.77-62.51-44.06C535.68,188.21,533.08,183.27,528.59,179.7ZM4,705.64c-16.52,64.68,19.8,131.47,82.1,151,11.68-8.24,25.27-13,36.45-22.57,25.12-21.44,39.41-48.06,44-80.5,5.79-41-7.89-75.59-35.11-105.17-10.35-11.25-23.51-19.72-37.76-26-2.29-1-5.59-.91-5.58-4.69-8.4,2.18-16,6.2-23.57,10.27-23.24,12.57-39.66,31.81-52.43,54.51a44,44,0,0,1-6.23,15.4C5.22,700.46,4.64,703.06,4,705.64Z"/></g></g></svg>