<svg xmlns="http://www.w3.org/2000/svg" viewBox="0 0 679.11 871.73"><defs><style>.cls-1{fill:#ffd039;}</style></defs><g id="Layer_2" data-name="Layer 2"><g id="Layer_10" data-name="Layer 10"><path id="_9" data-name="9" class="cls-1" d="M514.81,245.42c9.89-9.07,23.12-12.66,33.53-21.26,29.19-24.14,45-54.58,46.76-92.35,1.79-38.66-11.86-71.11-39.74-97.66a115.59,115.59,0,0,0-43.5-25.88c31.48-13,62.5-9.7,93,3.21,19.4,8.22,34.95,21.73,48.53,37.63,2.15,5.9,6,10.69,10.07,15.32,17.74,35.21,21.14,71.16,6.44,108.42C646,233.51,576.51,266.15,514.81,245.42ZM100.29,855.64c23.1-12.37,39.28-31.56,52.24-53.82,1-6,3.68-11.43,6.55-16.75-.08-1.26.1-2.37,1.66-2.57l-.09.06c3.65-20.38,6.34-40.77,2-61.44C146.12,641.7,66.42,603.9,2,626c0,3.78,3.29,3.68,5.58,4.69,14.25,6.25,27.41,14.72,37.76,26,27.22,29.58,40.9,64.19,35.11,105.17-4.58,32.44-18.87,59.05-44,80.5C25.27,851.84,11.68,856.62,0,864.86,34.81,876.8,68.19,872.82,100.29,855.64Z"/></g></g></svg>