<svg xmlns="http://www.w3.org/2000/svg" viewBox="0 0 451.57 322.38"><defs><style>.cls-1{fill:#86c064;}</style></defs><g id="Layer_2" data-name="Layer 2"><g id="Layer_6" data-name="Layer 6"><path id="_11" data-name="11" class="cls-1" d="M270,221.85c0,2.43-.43,5,2.17,6.61l0,31.47-2.26.12C263.27,235.4,257,210.65,244.58,188,206.51,118.37,149.13,74.79,70.93,59.76,48.27,55.4,25.28,52.9,2.19,57.3,2.32,38.41,2,19.54,0,.74,42.55-2,83.87,2.44,123.45,19.79c40.21,17.63,73,44.29,99.35,79,4.48,5.91,7.25,7.63,13.92,3.1,14.51-9.83,29.86-18.41,44.45-28.13a255.12,255.12,0,0,1,58.25-28.53c14.84-2.66,29.82-4.59,44.72-1.39,31.37,6.76,48.53,28.71,58.57,57.23,6.52,18.54,9.77,37.81,8.64,57.62-6.17-9.64-11-20-18.89-28.69-20.65-22.83-46.81-25.12-74.41-20.43-30.48,5.17-55.47,22.69-80.93,38.8-2.08,1.31-4.44,2.38-6.08,4.12-4.05,4.31-13.3,2.86-13.65,10.12-.28,5.64,2.37,11.62,4.55,17.11,1.4,3.52.53,7.85,3.81,10.64C267.94,200.77,270.47,211.11,270,221.85Zm-3.8,75.71c22.35,6.12,43.36,16,65.25,23.41,10.35,3.5,18.33.37,21.77-8.24,3.68-9.21,0-17.34-10.72-21.53-18.59-7.28-37.36-14.11-56.11-21-5.2-1.91-10.25-4.83-16.18-3.63C270.36,277.1,267.7,287.25,266.22,297.56Zm5.94-37.63,0-31.47c24.56-.07,49.13-.39,73.7-.11,13,.15,25.72-3.2,38.75-2,12.05,1.09,19.85,11.3,16.23,21.58-2.35,6.66-6.86,9.51-14.14,10.25-29.39,3-58.84,1.3-88.25,1.81C289.71,260.13,280.93,260,272.16,259.93ZM270,221.85c.45-10.74-2.08-21.08-4.27-31.46,20.83-9,41.6-18.09,62.52-26.85,9.66-4,18.53-.87,22,7.16,3.67,8.6.76,17.51-8.72,21.61C317.85,202.56,293.87,212.05,270,221.85Z"/></g></g></svg>