<svg xmlns="http://www.w3.org/2000/svg" viewBox="0 0 523.42 807.19"><defs><style>.cls-1{fill:#b8225c;}</style></defs><g id="Layer_2" data-name="Layer 2"><g id="Layer_6" data-name="Layer 6"><path id="_12" data-name="12" class="cls-1" d="M160.54,627.31C134.66,647,106.27,663.5,84.11,687.88c-23.81,26.2-34.54,55.61-22.6,90.7,3.67,10.78,13,18.16,17.17,28.61-23.87-9.56-44.75-23.46-61-43.54C-3.82,737.12-5.69,704.86,12,674.34c10.19-17.62,24-32.14,40.1-44.22,22.46-16.83,45.5-32.89,68.29-49.28C132.24,597.64,146.78,612.13,160.54,627.31ZM336.7,167.85c-4.07-27-8.28-53.94-3.16-81.27,5.58-29.76,20.19-52.39,49.33-64.32,11.31-4.63,23.34-3.21,34.76-6.09-15.93-7.65-32.9-11.8-50.22-14.7C323.22-5.92,286.32,15,273.19,55.26c-5.47,16.82-7.13,34.27-5.87,52,2.13,30.12,8.05,59.73,12,89.61,20.14-.87,40.23-2.93,60.43-2C340.47,185.65,338.05,176.78,336.7,167.85ZM211.37,663.43c11.91-.88,20.17,9.3,31.45,10.36-9.32,27.15-21.63,53.08-32.44,79.62-4.09,10-8.15,20.12-12.84,29.89-5.1,10.62-12.71,13.59-22.26,9.55-7.88-3.34-11.18-11.89-7.06-22.5,8-20.54,17-40.67,25.12-61.15C199.38,694,207.31,679.45,211.37,663.43Zm33.8,92.05c-.49,11,6.43,17.44,16.43,17.51s16.8-6.2,17-17.06c.39-23.8-.29-47.62,2-71.37L247,675.68C247.55,702.31,246.36,728.89,245.17,755.48Zm-117-63.06c-7.45,7.74-7.77,15.67-1.64,22.38,6.66,7.28,16.79,8.32,24.27,1C169.85,697.16,188.3,678,207,659c-9.58-6.07-18.44-13.41-29.51-16.88C161,658.86,144.49,675.52,128.21,692.42ZM434.8,220.23l-29.51-12.69q23.11-54,46.25-108.1c4-9.31,12.22-12.92,21.43-9.63a15.41,15.41,0,0,1,9.12,20.66c-9.23,23.06-19.1,45.87-28.92,68.69C447.24,192.94,440.94,206.55,434.8,220.23Zm82-30.2c7.65-8,8.87-18.8,2.59-25-6.08-6-18.42-5.65-25.62,1.75-18.52,19-36.65,38.47-54.93,57.74l29.72,16.58Q492.67,215.54,516.8,190ZM400.86,128.8c.27-13.05-6.81-20.76-17.34-20.41s-16.15,7.38-16.2,20.26c-.08,23.48-.05,47-.06,70.44,11-.12,20.92,4.95,31.62,6.24C398.2,179.78,400.32,154.31,400.86,128.8Z"/></g></g></svg>