<svg xmlns="http://www.w3.org/2000/svg" viewBox="0 0 531.3 454.16"><defs><style>.cls-1{fill:#9ed4d4;}</style></defs><g id="Layer_2" data-name="Layer 2"><g id="Layer_6" data-name="Layer 6"><path id="_13" data-name="13" class="cls-1" d="M483.06,56.18c0,2.86.62,5.27,4,5.8q8.64,13.7,17.26,27.41c10.9,25.66,21.28,51.47,24.4,79.52.49,4.48.81,9,1.21,13.48,3.27,17.57-.29,35.11-.21,52.66a255.56,255.56,0,0,0-58.25,28.54c-14.59,9.72-29.94,18.3-44.45,28.13-6.67,4.52-9.44,2.8-13.92-3.11-26.34-34.74-59.14-61.39-99.35-79-39.58-17.36-80.9-21.76-123.45-19.06-4.57-19.7-8.66-39.55-17-58.1-5.3-11.73-11.14-23.22-16.73-34.81,4.31-3,8.69-5.85,12.92-8.93C202.14,64.92,237,43.49,257.89,6.9a299.65,299.65,0,0,1,78-6.58C386.38,2.65,431,20.67,471.21,50.59c3.09,2.29,5.57,5.44,10,5A7,7,0,0,1,483.06,56.18ZM48,452.25c36.77-16.58,67.94-40.51,92.47-72.53,12.5-16.33,24.53-33.21,30.66-53.34-2.52-1.88-5.06-3.73-7.57-5.63-21.58-16.34-46-22.88-72.33-17.31C20,318.52-6.2,398,41,454.16,43.34,453.54,45.83,453.23,48,452.25ZM0,172.38C0,141,23,118.13,54.62,118.21c30.69.07,53.64,23.25,53.66,54.2s-22.94,54.06-53.69,54.17C23.09,226.69,0,203.79,0,172.38Z"/></g></g></svg>