<svg xmlns="http://www.w3.org/2000/svg" viewBox="0 0 463.13 437.05"><defs><style>.cls-1{fill:#b1d38e;}</style></defs><g id="Layer_2" data-name="Layer 2"><g id="Layer_6" data-name="Layer 6"><path id="_3" data-name="3" class="cls-1" d="M422.63,329.73c-15,18.43-29.83,37-48.64,51.93-37.08,29.49-78.75,47.77-125.88,53.43-9.4,1.13-18.74,2.68-28.24,1.59,4.54-17.09,6.12-34.15,2.61-51.83-8.92-44.89-60.61-79.07-105.2-69.17-30.84,6.85-52.78,24.71-66.67,52.83-13.1-9.23-22.35-22-31.81-34.58-2.3-3.06-4.76-6-7.14-9-.51-8-.6-16.09-1.59-24.05C6.89,275.26,3.38,249.64,0,224c15-3.66,30-7,43.6-14.64,2.35-.62,4.83-.93,7-1.91,36.78-16.57,68-40.51,92.47-72.53,12.51-16.33,24.53-33.21,30.66-53.33,2.95-3.2,3.83-7.39,5.34-11.27,8.55-21.92,12.56-44.91,16-68,23.1-4.39,46.08-1.89,68.74,2.46C342,19.8,399.41,63.38,437.48,133c12.38,22.66,18.69,47.41,25.31,72.06l.33,6.54c.13,10.51-2.52,20.66-4,31-4,12.58-6.65,25.52-11.55,37.9C440.74,297.7,431,313.33,422.63,329.73ZM313.15,321.1c29.83,0,54.66-24.49,54.71-54,.06-30.25-24.6-55.46-54.46-55.67s-55.13,24.91-55.15,54.89A54.55,54.55,0,0,0,313.15,321.1Z"/></g></g></svg>