<svg xmlns="http://www.w3.org/2000/svg" viewBox="0 0 252.2 333.38"><defs><style>.cls-1{fill:#94c673;}</style></defs><g id="Layer_2" data-name="Layer 2"><g id="Layer_6" data-name="Layer 6"><path id="_4" data-name="4" class="cls-1" d="M40.49,159l-.33-6.54,2.26-.12c8.78,0,17.55.2,26.32,0,29.42-.52,58.86,1.16,88.25-1.82,7.28-.74,11.79-3.58,14.14-10.25,3.62-10.28-4.18-20.48-16.23-21.58-13-1.19-25.77,2.17-38.75,2-24.57-.28-49.14,0-73.7.1-2.59-1.59-2.14-4.18-2.17-6.61C64.13,104.46,88.12,95,111.77,84.72c9.48-4.11,12.39-13,8.72-21.61-3.43-8-12.3-11.22-22-7.17C77.61,64.71,56.84,73.83,36,82.8,32.73,80,33.6,75.67,32.2,72.16c-2.18-5.5-4.83-11.48-4.55-17.11.35-7.27,9.6-5.82,13.65-10.13,1.64-1.74,4-2.8,6.08-4.11C72.84,24.69,97.83,7.18,128.31,2c27.6-4.68,53.76-2.4,74.41,20.44,7.88,8.71,12.72,19.05,18.89,28.69,5.36,11,14,20.05,18.85,31.45,16.1,38.11,16.32,76.26-3.59,112.55-8.46,15.42-11.3,30.9-13.18,47.56-3.2,28.37-12.9,54.06-36.14,72.35-26.94,21.2-57.3,21.66-88.93,13.22-28.28-7.54-52.17-23.81-77.08-38.06C14.25,286,7.17,281.49,0,277.12c8.34-16.4,18.11-32,24.94-49.26,4.9-12.38,7.53-25.32,11.54-37.9,22.35,6.12,43.36,16,65.25,23.41,10.35,3.51,18.33.37,21.77-8.23,3.68-9.21,0-17.34-10.72-21.54-18.59-7.28-37.36-14.1-56.11-21C51.47,160.72,46.42,157.8,40.49,159Z"/></g></g></svg>