<svg xmlns="http://www.w3.org/2000/svg" viewBox="0 0 591.11 875.47"><defs><style>.cls-1{fill:#e04b85;}</style></defs><g id="Layer_2" data-name="Layer 2"><g id="Layer_6" data-name="Layer 6"><path id="_5" data-name="5" class="cls-1" d="M318.24,670c3.38,25.63,6.9,51.25,10.08,76.91,1,8,1.08,16,1.58,24-1.17,12.91-2.42,25.79-6.21,38.3C309.25,857,269.1,882.07,220,874c-2.07-.34-4.31-.45-6.14-1.33-28.47-13.75-59-5.22-88.39-8.42-40.5-4.41-71.58-24.9-93.17-59.42-2.71-4.33-5.72-7.67-10.24-9.77-4.21-10.45-13.5-17.83-17.17-28.61-11.94-35.1-1.22-64.51,22.6-90.7,22.16-24.38,50.55-40.89,76.42-60.57,6.94,3.44,14.47,6.21,16.93,14.78-16.44,16.76-33,33.43-49.25,50.33C64.16,688,63.83,695.92,70,702.62c6.66,7.29,16.8,8.32,24.27,1,19-18.63,37.46-37.84,56.14-56.83,2.89.09,4.2,1.72,4.4,4.46-4.06,16-12,30.54-18,45.78-8.12,20.48-17.15,40.61-25.12,61.15-4.11,10.61-.81,19.16,7.07,22.49,9.54,4,17.16,1.08,22.26-9.54,4.68-9.78,8.75-19.85,12.84-29.9,10.81-26.54,23.12-52.46,32.43-79.61l.15-2.35c2.54.28,4.12,1.48,4.08,4.23.51,26.64-.69,53.22-1.87,79.81-.49,11,6.42,17.44,16.43,17.51s16.79-6.2,17-17.06c.4-23.8-.28-47.62,2-71.37,3.13,0,6.31-.44,9.38,0A265.89,265.89,0,0,0,318.24,670Zm272.87-512.2c-2.64-13.45-5.52-26.75-13.08-38.59-14.11-22.1-34.28-36.92-57.52-47.93a32.73,32.73,0,0,1-13.91-12C484.05,25.57,452.84,6,412.27.63,394.71-1.68,378.1,3,361,4c-11.42,2.89-23.45,1.46-34.76,6.09C297.13,22,282.51,44.64,276.94,74.41c-5.13,27.33-.92,54.27,3.16,81.26,1.35,8.94,3.77,17.81,3,27,8.88,3.31,18.42,2.33,27.51,4.25,0-23.48,0-47,.07-70.44,0-12.88,5.76-19.91,16.19-20.26s17.62,7.35,17.34,20.4c-.53,25.52-2.65,51-2,76.54,1.52,2.55,4.05,2.15,6.42,2.21q23.12-54,46.25-108.1c4-9.32,12.22-12.92,21.43-9.63a15.41,15.41,0,0,1,9.12,20.66c-9.24,23.06-19.11,45.87-28.92,68.69-5.93,13.78-12.24,27.39-18.37,41.07l2.1,4.05a12.65,12.65,0,0,0,1.94.21c18.28-19.27,36.41-38.7,54.93-57.74,7.2-7.41,19.54-7.79,25.62-1.75,6.28,6.23,5,17-2.59,25-16.14,16.95-32.17,34-48.24,51,9.08,8.09,18.1,16.25,27.25,24.25,15.13,13.23,25.62,30.32,38.16,45.69,4.31-3,8.69-5.85,12.92-8.92,32.71-23.78,67.59-45.21,88.45-81.8C586.16,192.16,590.87,175.54,591.11,157.82Z"/></g></g></svg>