<svg xmlns="http://www.w3.org/2000/svg" viewBox="0 0 1001.88 475.47"><defs><style>.cls-1{fill:#57bdbb;}</style></defs><g id="Layer_2" data-name="Layer 2"><g id="Layer_6" data-name="Layer 6"><path id="_6" data-name="6" class="cls-1" d="M569.28,101a249.5,249.5,0,0,1,75.36,7.43c3.61.92,7.36,2.38,11.18.56,13.72,8.5,29.76,11.82,43.79,19.71,11.23,6.3,11.24,6,15.48-6.24,9.85-28.39,17.53-57.66,35.43-82.67,20.49-28.65,46.39-45.29,83-38.12,8.83,1.73,17.29,5.35,25.92,8.09,2.82,2.79,6.29,3.87,10.13,4.88,53,13.89,90.88,58.81,96.15,113.66.34,3.45,0,6.93,2.49,10,16.63,19.9,27.33,42.77,33.65,67.8v29.53c-3.44,7.91-6.17,16.23-10.43,23.67-17.66,30.87-46.87,45.62-79.6,53.9-27.16,6.86-55.13,9.93-82.91,13.64-.4-4.5-.71-9-1.21-13.48-3.11-28-13.5-53.86-24.39-79.52,22.53-7.5,45.15-14.77,67.57-22.62,11.07-3.88,15.58-12.65,12.47-21.95-3-9-12.24-12.81-23.56-9.15-21.93,7.1-43.77,14.51-65.65,21.77-3,1-6,1.95-8.1,4.54-3.37-.53-4-2.94-4-5.8,2.11-1.19,4.45-2.11,6.31-3.62q23.57-19.23,47-38.65c12.4-10.25,24.83-20.45,37.08-30.87,8.14-6.91,9.8-19.43,3.87-26.36-5.21-6.09-15.43-6.77-22.86-.67-28.67,23.49-57.12,47.26-85.7,70.86-4,3.33-4,5.73-.8,10.32,4.32,6.18,11.83,10.14,13.23,18.37-4.39.47-6.87-2.67-10-5C730,165.07,685.4,147,634.91,144.72a299.56,299.56,0,0,0-78,6.57C564.33,135.33,569,118.71,569.28,101Zm228-11.22c-.22-5.71-3.9-11.45-12.35-13.33-7.75-1.73-13.74.93-17.59,7.91-7.77,14.12-15.45,28.3-23.18,42.46-11.63,21.3-11.41,21.05,6.13,37.89,5.93,5.7,8.74,6.18,12.71-1.77,10.35-20.69,21.36-41.07,32.3-61.47C796.93,98.48,797.34,95.56,797.32,89.77ZM21.24,471.9c1,.34,2.33.47,1.84,2.14l-.11-.11c14,1,28.14,3.82,41.8-2.17,14.83-8.56,27.5-18.94,33.31-36,11.36-33.4-5.91-67.68-39.76-78.34a27.79,27.79,0,0,1-3.77-1.82c-20.71-4.33-38.31,2.54-54.33,15.08C-1.39,406.2,6,439.86,21.24,471.9Z"/></g></g></svg>