<svg xmlns="http://www.w3.org/2000/svg" viewBox="0 0 358.25 479.18"><defs><style>.cls-1{fill:#ce4f79;}</style></defs><g id="Layer_2" data-name="Layer 2"><g id="Layer_6" data-name="Layer 6"><path id="_7" data-name="7" class="cls-1" d="M320.23,10.73c1.51,2.54,4,2.14,6.41,2.21l29.52,12.69q1,2,2.09,4.05c-31.7-6.56-63.54-8.45-95.81-4.33-48,6.14-90.11,25.75-126.25,57.12C91.25,121.48,64,171.06,54.33,230,33.62,225.66,16,232.53,0,245.06,2,153.11,43.1,83.4,120.49,34.74,142.31,21,166.25,12,191.5,6.53c3.34-.72,7.07-.83,9.17-4.3,20.14-.86,40.23-2.92,60.43-2,8.87,3.31,18.41,2.33,27.51,4.24C299.58,4.36,309.53,9.43,320.23,10.73ZM41.7,386.24C53.59,403,68.13,417.53,81.89,432.71c6.93,3.44,14.47,6.21,16.92,14.78,11.07,3.46,19.93,10.8,29.51,16.87,2.89.08,4.2,1.72,4.4,4.46,11.91-.87,20.18,9.3,31.45,10.36l.15-2.35c-11.58-10.05-24.2-18.76-35.48-29.28a239.87,239.87,0,0,1-55.23-76.86c-3.6-7.92-7.94-15.66-9-24.53-13.66,6-27.78,3.16-41.8,2.17C25.7,362.65,36.2,373.2,41.7,386.24Z"/></g></g></svg>