<svg xmlns="http://www.w3.org/2000/svg" viewBox="0 0 228.52 277.61"><defs><style>.cls-1{fill:#1ba188;}</style></defs><g id="Layer_2" data-name="Layer 2"><g id="Layer_6" data-name="Layer 6"><path id="_8" data-name="8" class="cls-1" d="M203.64,53.58c-8.63-2.74-17.09-6.36-25.92-8.09-36.63-7.17-62.53,9.47-83,38.12-17.9,25-25.58,54.28-35.43,82.67C55,178.51,55,178.82,43.79,172.52c-14-7.89-30.07-11.21-43.79-19.71,11.3-33.35,19.93-67.72,36.53-99.1,7.75-14.65,17.71-27.77,31.13-37.85,26.73-20.08,55.09-20.09,84-5.65C172.24,20.52,189.41,35.39,203.64,53.58Zm-71.07,187.2q23.57-19.23,47-38.65c12.4-10.24,24.83-20.45,37.08-30.87,8.14-6.91,9.8-19.43,3.87-26.36-5.21-6.09-15.43-6.77-22.86-.67-28.67,23.49-57.12,47.26-85.7,70.86-4,3.33-4,5.73-.8,10.32,4.32,6.18,11.83,10.14,13.23,18.37a6.66,6.66,0,0,1,1.89.62C128.38,243.21,130.71,242.29,132.57,240.78Zm15,36.83L130.26,250.2c2.09-2.59,5.09-3.55,8.09-4.54C160.23,238.4,182.07,231,204,223.89c11.32-3.66,20.55.15,23.56,9.15,3.11,9.3-1.4,18.08-12.47,22C192.67,262.84,170.05,270.11,147.52,277.61Zm-6-144c0,5.79-.39,8.71-2,11.69-10.94,20.4-22,40.78-32.3,61.48-4,7.94-6.77,7.47-12.71,1.76C77,191.69,76.75,191.94,88.38,170.64c7.73-14.15,15.41-28.34,23.19-42.46,3.84-7,9.83-9.64,17.58-7.91C137.6,122.15,141.28,127.89,141.5,133.6Z"/></g></g></svg>