<svg xmlns="http://www.w3.org/2000/svg" viewBox="0 0 436.98 469.09"><defs><style>.cls-1{fill:#ef7e9c;}</style></defs><g id="Layer_2" data-name="Layer 2"><g id="Layer_6" data-name="Layer 6"><path id="_9" data-name="9" class="cls-1" d="M110,453.66c-11.58-10.05-24.2-18.76-35.48-29.29a239.87,239.87,0,0,1-55.23-76.86c-3.6-7.92-7.94-15.65-9-24.53,14.82-8.56,27.49-18.94,33.3-36,11.37-33.4-5.91-67.68-39.76-78.34A28.37,28.37,0,0,1,0,206.81C9.7,147.88,36.92,98.3,81.86,59.29,118,27.92,160.08,8.31,208.11,2.18c32.27-4.12,64.11-2.24,95.81,4.32a12.78,12.78,0,0,0,1.95.21l29.71,16.58c9.08,8.09,18.1,16.25,27.26,24.25C378,60.77,388.45,77.85,401,93.23c5.59,11.59,11.43,23.08,16.73,34.81,8.37,18.55,12.47,38.41,17,58.1,2,18.81,2.32,37.68,2.18,56.56-3.44,23.12-7.44,46.11-16,68-1.52,3.88-2.4,8.07-5.34,11.26-2.53-1.88-5.07-3.73-7.57-5.63-21.59-16.34-46-22.88-72.33-17.31-71.2,15.09-97.44,94.57-50.25,150.72-13.6,7.66-28.65,11-43.6,14.64A265.9,265.9,0,0,1,157,466.74c-3.08-.4-6.26,0-9.39,0l-33.5-8.89C114.1,455.14,112.52,453.94,110,453.66ZM244.48,168c0,31.41,23.09,54.31,54.59,54.2,30.75-.11,53.71-23.27,53.69-54.17s-23-54.13-53.66-54.2C267.51,113.74,244.45,136.61,244.48,168Z"/></g></g></svg>